<?xml version="1.0" encoding="utf-8"?>
<!-- Generator: Adobe Illustrator 12.0.0, SVG Export Plug-In . SVG Version: 6.00 Build 51448)  -->
<!DOCTYPE svg PUBLIC "-//W3C//DTD SVG 1.1//EN" "http://www.w3.org/Graphics/SVG/1.1/DTD/svg11.dtd" [
	<!ENTITY ns_svg "http://www.w3.org/2000/svg">
	<!ENTITY ns_xlink "http://www.w3.org/1999/xlink">
]>
<svg  version="1.1" id="Layer_1" xmlns="&ns_svg;" xmlns:xlink="&ns_xlink;" width="901" height="88" viewBox="0 0 901 88"
	 overflow="visible" enable-background="new 0 0 901 88" xml:space="preserve">
<g transform="translate(0.000000,88.000000) scale(0.100000,-0.100000)" opacity="0.8">
	<path d="M283.999,841.001C195,775,115,668.999,67.002,553.999C22.002,442.998,15,402.998,15,235C15,20.996,16.001,20,140,20
		c55,0,90,4.004,90,10s-11.001,37.002-25,70c-32.002,75-33.999,150.996-5,177.998c27.998,26.006,82.002,42.002,167.002,49.004
		c51.997,3.994,76.997,2.002,87.998-7.002c23.999-20,18.999-119.004-10-205.996C431.001,72.998,420,35,420,30
		c0-5.996,38.999-10,93.999-10h93.999l14.004,37.998c8.999,26.006,12.998,90,11.997,212.002
		c-1.001,145.996-3.999,187.998-21.997,252.998c-30,110-86.001,211.001-158.003,284.004
		C380,882.002,347.998,888.999,283.999,841.001z M385,673.999c35-37.998,75-122.998,75-160v-31.997L382.998,475
		c-42.998-2.998-100-10-125.996-16.001c-78.003-15-84.004,1.001-35,92.002C255,613.999,327.998,700,348.999,700
		C355,700,372.002,687.998,385,673.999z"/>
	<path d="M790,855c-7.002-8.999-17.002-58.999-22.002-112.998C756.001,620,763.999,85,778.999,47.998L790,20h106.001
		c135,0,176.997,12.002,235,70c71.001,70.996,92.998,137.002,93.999,285c0,105-2.998,126.001-23.999,172.002
		C1172.998,610,1113.999,666.001,1067.998,675c-20,3.999-51.997,0-81.997-10c-26.001-8.999-53.999-13.999-62.002-11.001
		c-17.998,7.002-17.998,73.999,0,143.003c10,36.997,11.001,53.999,3.003,61.997C910,876.001,805,872.998,790,855z M1045,546.001
		c67.998-68.003,57.998-306.997-15-346.001c-33.999-17.998-81.001-7.998-102.998,22.002c-17.002,22.998-21.001,47.002-25,137.002
		C895,532.998,908.999,570,981.001,570C1010,570,1027.998,562.998,1045,546.001z"/>
	<path d="M4162.998,860c-72.002-28.999-47.002-130,32.002-130c69.004,0,97.998,67.998,50,115C4220,871.001,4200,875,4162.998,860z"
		/>
	<path d="M7767.001,857.998c-9.004-6.997-21.006-36.997-27.002-66.997C7729.003,732.998,7727.998,105,7739.003,55
		c5.996-30,5.996-30,83.994-32.998C7865,20,7900,22.998,7900,27.998s-7.002,55-15.996,112.998
		C7860,290,7860,591.001,7884.003,732.998c8.994,60,15,115,11.992,123.003C7889.003,873.999,7790.996,875,7767.001,857.998z"/>
	<path d="M8292.001,861.001c-11.006-7.002-11.006-21.001,2.002-83.999c8.994-42.002,12.998-83.003,10-91.001
		c-7.002-18.003-12.002-18.999-67.002-16.001c-60,2.998-102.998-17.998-151.006-71.001c-70-77.998-90-140-90.996-283.999
		c0-130.996,10-175.996,52.998-227.002c47.002-55.996,89.004-67.998,250-67.998h142.002l10.996,27.998
		c13.008,32.998,5,696.001-8.994,761.001c-5,23.999-16.006,47.002-22.998,52.002
		C8400.995,872.002,8309.003,872.002,8292.001,861.001z M8310.995,562.998c16.006-17.998,26.006-215,14.004-290
		c-19.004-127.002-150-120.996-185,7.998c-24.004,87.002,12.002,236.006,67.998,279.004
		C8237.997,583.999,8292.997,586.001,8310.995,562.998z"/>
	<path d="M3220.996,841.001C3190,782.998,3180,122.998,3209.004,47.998c10-27.998,11.992-27.998,95-27.998
		c46.992,0,86.992,2.998,88.994,7.002c2.998,5-5.996,50.996-20,102.998c-45.996,182.998-55.996,506.001-15,497.998
		C3382.002,623.999,3445,490,3475.996,380c35-130,43.008-149.004,71.006-167.002c22.998-15,25.996-15,42.998,2.998
		c10.996,11.006,32.002,68.008,49.004,139.004C3672.002,482.998,3735,625,3760,625c20,0,27.002-41.001,29.004-155
		c0.996-130-15-279.004-39.004-367.002c-10.996-40-20-75-20-77.998s40.996-5,90-5c107.998,0,102.998-7.002,119.004,155
		c20,200.996,7.998,613.999-19.004,666.001c-9.004,16.001-22.002,18.999-85,18.999c-65,0-77.002-2.998-105-26.001
		c-35.996-31.001-95-116.001-134.004-191.001c-13.994-28.999-27.998-52.998-30-52.998c-1.992,0-26.992,47.002-53.994,102.998
		c-32.998,66.001-64.004,115-87.002,135c-34.004,30-40,32.002-115,32.002C3242.002,860,3229.004,857.002,3220.996,841.001z"/>
	<path d="M2623.999,771.001c-33.999-15-42.998-26.001-48.999-53.003C2566.001,675,2552.998,660,2525,660
		c-31.001,0-47.002-22.002-52.998-75l-5-45l38.999,2.998L2545,545l6.001-220c6.001-217.998,15-280,45-310
		c12.998-12.998,18.999-12.998,50,0C2688.999,32.998,2740,67.998,2740,80c0,5-12.002,45-26.001,87.002
		c-21.997,63.994-27.998,102.002-31.997,208.994c-5,156.006,0.996,178.003,55,172.002c40.996-5,55.996,14.004,50.996,70
		c-2.998,35-5,37.002-42.998,42.002c-43.999,5-46.001,11.001-30,92.998c7.002,36.001,7.002,37.002-21.001,37.002
		C2677.998,790,2646.001,781.001,2623.999,771.001z"/>
	<path d="M1475,656.001c-46.001-20-95-73.999-123.999-136.001C1327.002,470,1325,453.999,1325,335
		c0-122.002,2.002-132.998,27.998-187.002c93.003-190,320-193.994,415-7.998c95,189.004,45,443.999-101.997,513.999
		C1625,672.998,1517.998,675,1475,656.001z M1621.001,540c36.997-20,58.999-82.998,58.999-170c0-129.004-37.002-190-116.001-190
		c-35,0-46.997,5-67.998,30c-63.999,77.002-62.002,246.001,3.999,312.002C1530,552.002,1582.998,560,1621.001,540z"/>
	<path d="M4525,651.001c-54.004-23.999-119.004-100-147.002-170C4345,397.998,4345,227.002,4377.998,155
		c55-120,155-172.998,272.998-145C4715,25.996,4764.003,70.996,4780,130c10.996,40,9.004,105-4.004,117.002
		c-2.998,2.998-21.992-12.998-43.994-36.006C4695,172.002,4690,170,4635.996,170c-71.992,0-107.998,22.998-131.992,85
		c-24.004,65-16.006,169.004,20,228.999C4554.003,536.001,4575,550,4620,550c30,0,80-37.002,80-60c0-21.001,47.998-10,64.004,15
		c32.998,50,10.996,121.001-48.008,148.999C4670,676.001,4575.996,673.999,4525,651.001z"/>
	<path d="M5099.003,640c-54.004-36.001-57.002-36.001-69.004-5c-9.004,22.998-15,25-70,25c-55.996,0-60-1.001-65.996-27.002
		c-11.006-40,2.998-553.994,15-585.996c10-26.006,12.998-27.002,80-27.002c45.996,0,70.996,4.004,72.998,12.002
		c2.998,7.002-2.002,42.002-10,77.998c-15,69.004-22.002,307.998-10,350c10,37.002,45,70,72.998,70c15,0,34.004-12.998,52.002-35
		c27.002-32.998,30-33.999,50.996-18.999c34.004,23.999,55,71.997,47.998,111.997C5252.998,671.001,5179.003,693.999,5099.003,640z"
		/>
	<path d="M5485,656.001c-45.996-20-95-73.999-124.004-136.001C5337.001,470,5335,453.999,5335,335
		c0-122.002,2.002-132.998,27.998-187.002c92.998-190,320-193.994,415-7.998c95,189.004,45,443.999-102.002,513.999
		C5635,672.998,5527.998,675,5485,656.001z M5630.996,540c37.002-20,59.004-82.998,59.004-170c0-129.004-37.002-190-115.996-190
		c-35,0-47.002,5-68.008,30c-63.994,77.002-61.992,246.001,4.004,312.002C5540,552.002,5592.998,560,5630.996,540z"/>
	<path d="M6805,656.001c-45.996-20-95-73.999-124.004-136.001C6657.001,470,6655,453.999,6655,335
		c0-122.002,2.002-132.998,27.998-187.002c92.998-190,320-193.994,415-7.998c95,189.004,45,443.999-102.002,513.999
		C6955,672.998,6847.998,675,6805,656.001z M6950.996,540c37.002-20,59.004-82.998,59.004-170c0-129.004-37.002-190-115.996-190
		c-35,0-47.002,5-68.008,30c-63.994,77.002-61.992,246.001,4.004,312.002C6860,552.002,6912.998,560,6950.996,540z"/>
	<path d="M7479.003,640c-54.004-36.001-57.002-36.001-69.004-5c-9.004,22.998-15,25-70,25c-55.996,0-60-1.001-65.996-27.002
		c-11.006-40,2.998-553.994,15-585.996c10-26.006,12.998-27.002,80-27.002c45.996,0,70.996,4.004,72.998,12.002
		c2.998,7.002-2.002,42.002-10,77.998c-15,69.004-22.002,307.998-10,350c10,37.002,45,70,72.998,70c15,0,34.004-12.998,52.002-35
		c27.002-32.998,30-33.999,50.996-18.999c34.004,23.999,55,71.997,47.998,111.997C7632.998,671.001,7559.003,693.999,7479.003,640z"
		/>
	<path d="M8694.999,657.998c-65.996-22.998-115-92.998-115-162.998c0-79.004,42.998-130.996,154.004-187.002
		c90-45,115.996-65.996,115.996-92.998c0-32.998-44.004-65-90-65c-57.998,0-97.998,32.002-157.002,125.996
		c-10,17.002-12.998,16.006-27.002-17.998c-35.996-85-5.996-180,72.002-225.996C8687.997,9.004,8705.995,5,8769.999,5
		c132.002,0.996,217.998,62.998,227.998,165c11.006,115.996-27.998,172.998-162.998,239.004
		c-124.004,59.995-147.002,88.994-105,130.996c32.002,32.002,74.004,26.001,124.004-20c23.994-22.002,47.998-40,53.994-40
		c12.002,0,56.006,55,66.006,83.999c10,28.003-19.004,65-67.002,87.002C8859.999,672.002,8745.995,676.001,8694.999,657.998z"/>
	<path d="M1948.999,632.998c-17.998-46.997-31.001-235.996-25-345.996c12.002-194.004,37.002-254.004,117.002-279.004
		c35-10,46.001-8.994,96.001,12.002c50.996,20.996,55.996,22.002,65,5.996C2207.998,15,2225,10,2261.001,10
		c107.998,0,112.998,15.996,112.998,355.996c1.001,207.002-1.997,264.004-12.998,277.002c-10,13.003-30,17.002-83.003,17.002h-70
		l5-37.002c43.003-295,28.003-450-47.998-485c-38.999-17.002-73.999-2.002-92.002,40c-20,47.998-11.997,245,16.001,377.002
		c10,50,17.002,92.998,13.999,97.998c-1.997,4.004-35.996,7.002-73.999,7.002C1962.998,660,1958.999,658.999,1948.999,632.998z"/>
	<path d="M4130,651.001c-9.004-7.002-17.002-37.002-20.996-88.003C4097.998,445,4099.003,75,4110,45.996
		c9.004-25,14.004-25.996,80-25.996c54.004,0,72.002,4.004,77.002,15c2.998,9.004-1.006,59.004-7.998,112.998
		C4252.001,202.002,4245,335.996,4245,450v205l-50,2.998C4167.998,658.999,4137.998,656.001,4130,651.001z"/>
	<path d="M5904.003,633.999c-10-37.998,2.998-206.997,20.996-281.997c32.002-134.004,117.998-306.006,167.002-336.006
		c23.994-15,57.998,20,102.998,105c20,38.008,39.004,69.004,42.998,69.004c4.004,0,25-34.004,46.006-75
		c47.998-90,70-114.004,93.994-99.004C6432.001,50,6520,207.002,6550.996,327.002c21.006,82.998,36.006,262.998,25,306.997
		c-5.996,23.999-10,26.001-65,26.001h-58.994l-4.004-162.002c-2.998-140.996-7.002-170-25-210.996
		C6372.001,175.996,6332.001,265,6320.996,515L6315,655l-60.996,2.998l-62.002,3.003l-4.004-163.003
		c-5-173.994-23.994-258.994-60-265.996c-42.002-7.998-80,147.002-77.002,311.997L6052.998,655l-70.996,2.998
		C5912.001,661.001,5910,660,5904.003,633.999z"/>
</g>
</svg>
