<?xml version="1.0" encoding="utf-8"?>
<!-- Generator: Adobe Illustrator 12.0.0, SVG Export Plug-In . SVG Version: 6.00 Build 51448)  -->
<!DOCTYPE svg PUBLIC "-//W3C//DTD SVG 1.1//EN" "http://www.w3.org/Graphics/SVG/1.1/DTD/svg11.dtd" [
	<!ENTITY ns_svg "http://www.w3.org/2000/svg">
	<!ENTITY ns_xlink "http://www.w3.org/1999/xlink">
]>
<svg  version="1.1" id="Layer_1" xmlns="&ns_svg;" xmlns:xlink="&ns_xlink;" width="213" height="53" viewBox="0 0 213 53"
	 overflow="visible" enable-background="new 0 0 213 53" xml:space="preserve">
<g transform="translate(0.000000,53.000000) scale(0.100000,-0.100000)" opacity="0.4">
	<path fill="#FFFFFF" d="M336.001,507.002C332.998,492.002,322.998,480,315,480c-22.002,0-30-22.002-11.001-32.002
		c13.003-6.997,16.001-16.997,12.002-33.999c-7.002-27.998,0-30,26.001-6.997c13.999,12.998,20.996,13.999,30,5
		C391.001,392.998,400,397.998,400,430c0,17.002,5,30,10,30c6.001,0,10,5,10,10c0,6.001-8.999,10-18.999,10
		c-11.001,0-28.003,12.002-38.999,27.002l-19.004,25.996L336.001,507.002z M360,480c0-5,6.001-10,13.999-10
		c8.999,0,12.002-7.002,8.999-21.001c-2.998-11.001-10.996-17.998-17.998-15c-7.002,2.002-17.998-1.001-23.999-6.997
		c-8.999-9.004-11.001-8.003-6.001,5.996c3.999,10,2.002,17.002-3.999,17.002c-8.003,0-7.002,6.001,1.001,20
		C346.001,491.001,360,497.002,360,480z"/>
	<path fill="#FFFFFF" d="M127.998,450c-22.998-22.998-25-30-13.999-38.999c8.003-7.002,12.002-21.001,8.999-31.001
		c-5.996-23.999,9.004-26.001,27.002-5c10,12.002,16.001,12.998,27.002,3.999c16.997-13.999,18.999-11.997,25.996,28.999
		c5,23.003,3.003,32.002-6.997,32.002c-7.002,0-20,8.999-27.002,18.999C155,477.998,153.999,477.998,127.998,450z M182.998,410
		c-5.996-21.001-35.996-21.001-43.999,0c-2.998,7.998-1.001,18.999,5,26.001C158.999,452.002,188.999,432.002,182.998,410z"/>
	<path fill="#FFFFFF" d="M1757.998,372.998c-12.998-2.998-15.996-10.996-12.002-31.997l6.006-28.003l-71.006-6.997
		c-63.994-7.002-70.996-8.999-70.996-28.999c0-29.004,29.004-269.004,32.002-272.002c2.002-0.996,97.002,9.004,210.996,24.004
		l209.004,25L2055,95c-4.004,22.002-9.004,65.996-10.996,97.002c-3.008,30.996-8.008,75.996-12.002,100L2024.004,335l-76.006-2.998
		c-73.994-4.004-75-3.003-82.002,21.997c-5.996,23.003-10.996,26.001-48.994,25C1794.004,377.998,1767.002,376.001,1757.998,372.998
		z M1840,340c0-16.001-7.002-20-35-20c-45.996,0-47.998,27.002-2.002,32.998c17.002,2.002,32.998,5,35,5
		C1839.004,358.999,1840,351.001,1840,340z M2010,311.001c0-5,2.998-23.003,5.996-40c6.006-26.997,4.004-31.001-15-31.001
		c-11.992,0-20.996,5.996-20.996,15c0,10-10,15-30,15c-22.998,0-30-5-30-19.004c0-20-5.996-21.992-127.002-36.992
		c-45-5-52.998-3.008-52.998,10C1740,235,1730.996,240,1710,240c-22.998,0-30-4.004-30-20c0-12.998-7.002-20-19.004-20
		c-13.994,0-20,9.004-22.998,37.998c-2.998,20-3.994,39.004-2.002,40c3.008,4.004,107.002,18.003,234.004,31.001
		C1990,321.001,2010,321.001,2010,311.001z M1959.004,189.004c-11.006-6.006-15-1.006-19.004,23.994
		c-7.002,42.998,12.002,56.001,24.004,16.006C1970.996,205.996,1970,195.996,1959.004,189.004z M1724.004,207.998
		c8.994-35.996,6.992-47.998-8.008-47.998c-12.998,0-27.998,55-17.998,65C1709.004,235,1717.998,229.004,1724.004,207.998z
		 M2037.002,72.998c-7.002-5.996-146.006-25.996-299.004-40.996l-77.002-7.998L1655,80c-10.996,99.004-10.996,104.004,7.998,107.998
		c9.004,2.002,17.002-2.002,17.002-10c0-22.002,20-35.996,40.996-30.996c10,2.998,19.004,13.994,19.004,23.994
		c0,24.004,5.996,26.006,102.002,34.004c72.002,5,77.002,4.004,82.998-15c9.004-29.004,49.004-22.998,52.998,7.002
		c2.002,12.002,11.006,22.998,20,25c14.004,2.998,20-10,31.006-69.004C2037.002,112.998,2040,77.002,2037.002,72.998z"/>
	<path fill="#FFFFFF" d="M280,320c-7.002-16.001-17.998-30-26.001-30c-21.997,0-27.998-22.002-10-35.996
		c10-7.002,17.002-23.008,16.001-36.006c-3.999-40-1.001-42.002,25-17.998c22.998,22.002,26.001,22.002,42.998,7.002
		c28.003-25,34.004-21.006,26.001,17.998c-5,27.002-2.998,36.001,10,41.001c25,8.999,18.999,21.997-11.001,26.001
		c-16.997,1.997-31.997,11.997-38.999,25.996C297.002,352.998,293.999,352.998,280,320z M327.002,280
		c10,0,12.998-6.001,8.999-16.001C332.998,255,330,244.004,330,239.004c0-6.006-5-7.002-10-4.004c-6.001,4.004-17.002,0.996-25-5
		c-12.002-10-15-9.004-15,9.004C280,250,273.999,260,267.998,260c-6.997,0-5,5,5,11.001c9.004,5,17.002,17.998,17.002,26.997
		c1.001,16.001,1.001,16.001,11.001,0C306.001,287.998,317.998,280,327.002,280z"/>
</g>
</svg>
