<?xml version="1.0" encoding="utf-8"?>
<!-- Generator: Adobe Illustrator 12.0.0, SVG Export Plug-In . SVG Version: 6.00 Build 51448)  -->
<!DOCTYPE svg PUBLIC "-//W3C//DTD SVG 1.1//EN" "http://www.w3.org/Graphics/SVG/1.1/DTD/svg11.dtd" [
	<!ENTITY ns_svg "http://www.w3.org/2000/svg">
	<!ENTITY ns_xlink "http://www.w3.org/1999/xlink">
]>
<svg  version="1.1" id="Layer_1" xmlns="&ns_svg;" xmlns:xlink="&ns_xlink;" width="335" height="82" viewBox="-22.5 -9 335 82"
	 overflow="visible" enable-background="new -22.5 -9 335 82" xml:space="preserve">
<g transform="translate(0.000000,65.000000) scale(0.100000,-0.100000)" opacity="0.4">
	<path fill="#FFFFFF" d="M25,627.998C17.002,603.999,0,485,0,450c0-33.999,3.999-37.998,90-90c48.999-30,88.999-57.998,90-62.998
		c0-4.004-20-17.002-43.999-29.004c-50-23.994-56.001-35.996-56.001-125V80h175h175V55c0-40,24.004-40,105-2.002l75,36.006V145
		c0,30.996-5.996,70-14.004,87.998c-15,36.006-90.996,125-98.994,117.002c-2.998-2.998-2.002-22.998,2.998-45
		c5-20.996,7.002-42.998,4.004-47.002c-3.008-3.994-39.004-7.998-80-7.998H350l5.996,57.998c3.008,31.001,7.002,66.001,9.004,78.003
		c4.004,16.997-10.996,31.001-72.998,72.998C250,487.002,177.998,540,132.002,575C47.002,642.002,32.998,648.999,25,627.998z
		 M207.998,491.001c89.004-63.999,101.001-75,90-90c-10-13.003-10-13.999,2.002-3.003c7.998,6.001,20.996,12.002,29.004,12.002
		c20,0-17.002-38.999-61.006-63.999L235,327.002l20,23.999c11.001,13.999,5,10-12.998-8.003C215,315,206.001,310.996,190,320
		c-28.999,16.001-25,28.999,27.002,85L265,455l-56.001-52.998c-50-48.003-58.999-53.003-77.998-43.003
		c-26.001,13.999-26.001,18.999-3.999,45c15.996,18.999,15,18.999-7.002-1.001c-17.998-15-30-18.999-40-12.998
		c-12.002,7.002-10,13.999,10,37.002L115,455l-32.002-28.999c-30-27.002-31.997-27.002-40.996-8.999
		C25,448.999,32.998,535,55,562.002c15,16.997,16.001,18.999,2.998,8.999C42.002,558.999,40,560,40,585v27.002l32.998-24.004
		C90,575,151.001,531.001,207.998,491.001z M340,312.998L335,255l-80-7.002c-110-10.996-117.998-7.002-56.001,27.998
		C242.002,299.004,345,365,345,368.999C345,370,342.998,343.999,340,312.998z M560,247.998c0-2.998-9.004-3.994-20-0.996
		c-14.004,3.994-20,13.994-20,32.002V305l20-25C550.996,265.996,560,252.002,560,247.998z M283.999,207.998L265,185l25,20.996
		c27.998,24.004,105.996,33.008,94.004,11.006c-5-9.004-4.004-9.004,6.992,0.996c14.004,12.998,96.006,16.006,148.008,6.006
		l31.992-7.002l-40-24.004c-22.998-12.998-45-22.002-50-17.998C470,180.996,430,132.998,430,114.004
		c0-8.008-7.002-14.004-15.996-14.004c-11.006,0-14.004,5.996-10,17.998c5.996,16.006,5,16.006-8.008,0
		c-12.998-17.002-45.996-25-45.996-10.996c0,2.998,12.002,22.002,25.996,42.002l25,35.996l-30-35
		C354.004,130.996,340,112.002,340,107.998c0-3.994-7.002-7.998-15.996-7.998c-9.004,0-12.002,5-8.008,12.998
		c6.006,9.004,5,9.004-6.997,1.006c-18.999-15-101.997-17.002-92.998-2.002c5,7.002,1.997,7.998-7.002,2.002
		c-7.998-5-35-9.004-61.001-10L100,102.998v59.004V220h37.002h36.997l-35-37.002L105,145l40,37.002
		c31.001,28.994,50,37.998,85,40.996c25,2.002,51.001,4.004,58.999,5C298.999,230,297.998,224.004,283.999,207.998z
		 M584.004,147.998L582.002,95l-52.998-27.002c-30-15-57.002-27.998-62.002-27.998c-4.004,0-6.006,20.996-4.004,45.996
		c2.998,43.008,5,47.002,57.002,80C550,184.004,577.002,200,580,200S585,175.996,584.004,147.998z"/>
	<path fill="#FFFFFF" d="M63.999,517.998L35,485l32.998,28.999C97.998,542.002,105,550,97.002,550C95,550,81.001,535,63.999,517.998
		z"/>
	<path fill="#FFFFFF" d="M81.001,485C58.999,461.001,40,437.002,40,433.999c0-3.999,1.001-5,2.998-2.998
		c2.002,1.997,23.003,25,47.002,51.997C112.998,508.999,130,530,127.998,530C125,530,103.999,510,81.001,485z"/>
	<path fill="#FFFFFF" d="M126.001,482.002L107.002,455l23.999,22.002c11.997,11.997,21.001,23.999,17.998,26.997
		C147.002,506.001,136.001,496.001,126.001,482.002z"/>
	<path fill="#FFFFFF" d="M148.999,442.998c-12.998-15.996-11.997-16.997,3.999-3.999C168.999,452.002,173.999,460,166.001,460
		C163.999,460,156.001,452.002,148.999,442.998z"/>
	<path fill="#FFFFFF" d="M167.998,412.998C150,392.002,137.002,370,142.998,370c2.002,0,13.003,13.999,25,30
		C192.998,432.998,192.002,441.001,167.998,412.998z"/>
	<path fill="#FFFFFF" d="M248.999,402.998c-12.998-15.996-11.997-16.997,3.999-3.999C268.999,412.002,273.999,420,266.001,420
		C263.999,420,256.001,412.002,248.999,402.998z"/>
	<path fill="#FFFFFF" d="M198.999,342.998c-12.998-15.996-11.997-16.997,3.999-3.999C218.999,352.002,223.999,360,216.001,360
		C213.999,360,206.001,352.002,198.999,342.998z"/>
	<path fill="#FFFFFF" d="M160,165c-23.999-25-42.002-45-38.999-45c2.998,0,25,20,48.999,45s42.002,45,38.999,45
		C206.001,210,183.999,190,160,165z"/>
	<path fill="#FFFFFF" d="M313.999,187.998L295,165l22.998,19.004C339.004,202.002,345,210,337.002,210
		C335,210,325,200,313.999,187.998z"/>
	<path fill="#FFFFFF" d="M359.004,182.998c-13.008-15.996-12.002-17.002,3.994-3.994C379.004,192.002,384.004,200,375.996,200
		C374.004,200,365.996,192.002,359.004,182.998z"/>
	<path fill="#FFFFFF" d="M193.999,147.998L165,115l32.998,29.004C215,160.996,230,175,230,177.002
		C230,185,222.002,177.998,193.999,147.998z"/>
	<path fill="#FFFFFF" d="M238.999,152.998L215,125l27.998,24.004C267.998,172.002,275,180,267.002,180
		C265,180,252.998,167.998,238.999,152.998z"/>
	<path fill="#FFFFFF" d="M273.999,137.998L255,115l22.998,19.004C298.999,152.002,305,160,297.002,160
		C295,160,285,150,273.999,137.998z"/>
	<path fill="#FFFFFF" d="M329.004,142.998c-13.008-15.996-12.002-17.002,3.994-3.994c9.004,6.992,17.002,15,17.002,16.992
		C350,164.004,342.002,159.004,329.004,142.998z"/>
</g>
</svg>
