<?xml version="1.0" encoding="utf-8"?>
<!-- Generator: Adobe Illustrator 12.0.0, SVG Export Plug-In . SVG Version: 6.00 Build 51448)  -->
<!DOCTYPE svg PUBLIC "-//W3C//DTD SVG 1.1//EN" "http://www.w3.org/Graphics/SVG/1.1/DTD/svg11.dtd" [
	<!ENTITY ns_svg "http://www.w3.org/2000/svg">
	<!ENTITY ns_xlink "http://www.w3.org/1999/xlink">
]>
<svg  version="1.1" id="Layer_1" xmlns="&ns_svg;" xmlns:xlink="&ns_xlink;" width="196" height="99" viewBox="0 0 196 99"
	 overflow="visible" enable-background="new 0 0 196 99" xml:space="preserve">
<g transform="translate(0.000000,99.000000) scale(0.100000,-0.100000)" opacity="0.4">
	<path fill="#FFFFFF" d="M1662.002,942.998c2.002-10-4.004-18.999-14.004-20.996C1637.002,920,1630,925,1630,933.999
		S1625,950,1619.004,950c-6.006,0-8.008-7.002-5-16.001c3.994-10-8.008-31.997-34.004-61.001c-37.002-42.998-40-50-40-106.997
		c0-41.001,5.996-68.999,15.996-85c16.006-22.002,16.006-23.999,0-33.003c-17.998-10-21.992-58.999-5.996-87.998
		c5-10,20.996-21.001,35.996-23.999c15-3.999,24.004-12.002,21.006-18.999c-2.002-7.002-10-55-17.002-106.006l-12.998-93.994
		l25.996-22.998c22.998-20,27.002-32.002,32.998-112.002c7.002-97.002,7.002-99.004-45.996-135
		C1567.002,30.996,1567.002,30,1585.996,30c12.002,0,33.008,9.004,48.008,20.996c25,20,25.996,24.004,25.996,126.006
		c0,103.994,0,105,22.998,98.994c12.002-2.998,29.004-5.996,37.998-5.996c14.004,0,18.008-15.996,24.004-90
		c7.002-89.004,7.002-90.996-19.004-115c-15-14.004-30.996-25-36.992-25c-5,0-9.004-5-9.004-10.996c0-15,40.996-1.006,67.998,23.994
		c20,19.004,22.002,29.004,22.002,124.004c0,58.994,4.004,102.998,10,102.998c22.998,0,27.002,40.996,20,175
		c-4.004,77.002-5.996,142.002-4.004,143.999c8.008,10,88.008-47.998,106.006-77.998c20.996-33.003,20.996-33.999,2.998-46.997
		c-10-8.008-14.004-14.004-7.998-14.004c7.002,0,8.994-9.004,5-22.002c-5-20-2.998-20.996,10-10c12.998,10,17.002,10,20.996,0
		c4.004-8.994,6.006-7.002,6.006,4.004c0.996,8.994,6.992,18.994,13.994,22.002c10,5,10,6.992,0,11.992
		c-7.002,3.008-12.998,11.006-12.998,18.008c0,25.996-52.998,85.996-97.998,111.997l-47.998,26.997l27.998,28.003
		c23.994,23.999,27.998,35,27.998,87.998c0,67.002-12.002,106.001-40.996,137.002c-13.008,13.999-17.002,23.999-10,28.999
		C1805,907.998,1810,916.001,1810,922.002c0,5.996-7.998,3.999-17.998-5c-15-14.004-21.006-15-34.004-4.004
		c-8.994,6.001-17.998,21.001-20.996,32.002c-4.004,17.002-5,17.002-6.006-3.999c-0.996-17.002-5-21.001-16.992-17.002
		c-9.004,3.003-20,6.001-25,6.001s-9.004,7.002-9.004,15s-5,15-10,15C1664.004,960,1660,952.002,1662.002,942.998z
		 M1784.004,877.002c35-27.002,55.996-75,55.996-127.002c-0.996-45-35-106.001-69.004-120c-35-13.999-115.996-8.999-152.998,11.001
		l-22.002,11.997l23.008,9.004c15,5,27.998,3.999,37.998-3.003c10.996-10,17.998-6.997,35,11.001l22.002,22.998l-50-6.997
		c-92.002-13.003-88.008-15-103.008,31.997c-6.992,25-10,57.002-6.992,77.002c7.998,37.998,51.992,97.998,70,92.002
		C1630,885,1640,888.999,1647.002,895C1667.998,917.002,1745,906.001,1784.004,877.002z M1600.996,630
		c35-18.999,19.004-87.998-18.994-76.001c-22.002,7.002-36.006,45-26.006,70C1562.998,642.998,1574.004,643.999,1600.996,630z
		 M1775,520c2.998-47.002,7.998-110,10.996-140c2.002-30,1.006-60-3.994-67.002c-6.006-8.994-32.002-10.996-96.006-5.996
		l-87.998,5.996l6.006,51.006c2.998,27.998,13.994,93.994,22.998,145.996l17.002,95h61.992h63.008L1775,520z"/>
	<path fill="#FFFFFF" d="M1615.996,860c5-5,25-12.002,44.004-15l35-5l-30,13.999C1630,872.002,1600.996,875,1615.996,860z"/>
	<path fill="#FFFFFF" d="M1720.996,851.001c-8.994-6.001-3.994-10,18.008-13.003c32.998-5,41.992,6.001,15,16.001
		C1735,861.001,1737.998,862.002,1720.996,851.001z"/>
	<path fill="#FFFFFF" d="M1645.996,813.999c-6.992-17.998,0-33.999,15-33.999c12.002,0,12.002,37.002,0,43.999
		C1655.996,827.002,1649.004,822.998,1645.996,813.999z"/>
	<path fill="#FFFFFF" d="M1720,801.001c0-12.002,5.996-21.001,15.996-21.001c9.004,0,14.004,7.002,12.002,17.002
		C1742.998,822.002,1720,825,1720,801.001z"/>
	<path fill="#FFFFFF" d="M1687.998,712.998c7.002-2.998,16.006-1.997,19.004,1.001c3.994,3.003-2.002,6.001-12.998,5
		C1682.998,718.999,1680,716.001,1687.998,712.998z"/>
	<path fill="#FFFFFF" d="M147.998,832.998c-33.999-45-35-56.997-3.999-70.996l25-11.001l-70-113.999
		C61.001,573.999,30,517.002,30,508.999c0-7.998,13.999-23.003,31.001-33.003C88.999,459.004,92.002,459.004,110,475
		c10,9.004,26.001,32.998,36.001,52.998c8.999,21.001,36.997,65,61.001,99.004c43.999,61.997,45,61.997,68.999,45.996
		c22.998-15,26.001-13.999,45,3.003C340,692.998,370,741.001,370,755c0,2.998-3.999,5-10,5c-5,0-45,25-87.002,55
		C230,845,191.001,870,185,870C180,868.999,162.998,852.998,147.998,832.998z M270,798.999c76.001-55,85-76.997,46.001-102.998
		c-23.999-15-27.002-13.999-106.001,37.998l-81.001,53.999l27.002,31.001c13.999,17.002,30,31.001,35,31.001
		S232.002,827.002,270,798.999z M215,712.002l22.998-18.003l-33.999-45C185,625,158.999,585,145,560
		c-12.998-25-30-53.999-37.998-63.999c-14.004-18.999-16.001-18.999-41.001-3.003L40,510l41.001,67.002
		c40,65.996,101.001,151.997,106.997,152.998C190,730,202.002,722.002,215,712.002z"/>
	<path fill="#FFFFFF" d="M427.998,762.998c-31.997-7.998-18.999-18.999,17.002-15c18.999,2.002,35,8.003,35,13.003
		C480,770,457.998,771.001,427.998,762.998z"/>
	<path fill="#FFFFFF" d="M420,710c7.998-5,23.999-10,35-10c17.002,0,17.002,2.002,5,10c-7.998,5-23.999,10-35,10
		C407.998,720,407.998,717.998,420,710z"/>
	<path fill="#FFFFFF" d="M390,683.999c0-7.998,42.998-42.998,53.999-43.999c5,0-1.001,11.001-13.999,25
		C407.998,688.999,390,697.002,390,683.999z"/>
</g>
</svg>
