<?xml version="1.0" encoding="utf-8"?>
<!-- Generator: Adobe Illustrator 12.0.0, SVG Export Plug-In . SVG Version: 6.00 Build 51448)  -->
<!DOCTYPE svg PUBLIC "-//W3C//DTD SVG 1.1//EN" "http://www.w3.org/Graphics/SVG/1.1/DTD/svg11.dtd" [
	<!ENTITY ns_svg "http://www.w3.org/2000/svg">
	<!ENTITY ns_xlink "http://www.w3.org/1999/xlink">
]>
<svg  version="1.1" id="Layer_1" xmlns="&ns_svg;" xmlns:xlink="&ns_xlink;" width="215" height="61" viewBox="0 0 215 61"
	 overflow="visible" enable-background="new 0 0 215 61" xml:space="preserve">
<g transform="translate(0.000000,61.000000) scale(0.100000,-0.100000)" opacity="0.4">
	<path fill="#FFFFFF" d="M331.001,527.002c-57.002-28.003-73.003-68.003-42.002-101.001c18.999-20,26.001-21.001,103.999-15
		c45,2.998,93.003,10,105,12.998c27.002,8.999,30,46.001,5,46.001c-15,0-15.996-2.002-2.998-10
		c28.999-17.998-6.001-32.002-86.001-32.998c-67.998-2.002-81.997,0.996-100,18.999C290,470,297.998,513.999,325,503.999
		c7.998-3.999,17.002,1.001,21.001,10c7.998,20,46.997,21.001,62.998,2.002C422.998,500,470,488.999,470,502.002
		c0,5-7.998,10.996-17.002,13.999c-10,2.998-30,11.997-45,20C377.002,552.998,385,553.999,331.001,527.002z"/>
	<path fill="#FFFFFF" d="M2057.998,482.998C2064.004,480,2070,465,2070,448.999S2075,420,2080,420c5.996,0,10,15,10,32.998
		c0,27.002-4.004,33.003-22.002,34.004C2055,487.002,2050.996,486.001,2057.998,482.998z"/>
	<path fill="#FFFFFF" d="M1980.996,362.998C1980,327.002,1977.002,320,1960,320c-30,0-25-10,32.002-74.004l52.002-57.998
		l-41.006,2.998c-22.998,3.008-38.994,1.006-37.002-2.998c3.008-5,21.006-7.998,40-7.998c37.002,0,58.008,19.004,111.006,97.998
		c23.994,35,22.002,34.004-26.006-12.998L2040,215.996L2000,255c-45,44.004-49.004,55-20,55c20.996,0,22.998,12.998,10,65
		C1982.998,402.998,1982.002,402.002,1980.996,362.998z"/>
	<path fill="#FFFFFF" d="M47.002,272.998c-2.002-5-5-55.996-6.001-113.994L38.999,52.998l38.003-5.996
		c48.999-9.004,117.998-9.004,176.997-1.006c50,7.002,55,16.006,72.002,122.002c6.001,37.998,5,42.002-15,42.002
		C297.002,210,290,215.996,290,230c0,17.998-7.002,20-70,20c-56.001,0-70,2.998-70,15c0,10.996-12.002,15-48.999,15
		C72.998,280,48.999,277.002,47.002,272.998z M137.998,247.998c-5.996-15.996-45-17.002-45-0.996c0,7.002,11.001,12.998,25,12.998
		C132.002,260,140,255,137.998,247.998z M313.999,190c3.003-2.998,0-24.004-5-47.002C301.001,115,291.001,100,277.002,95
		c-21.001-5.996-21.001-5.996-2.002-14.004C298.999,70.996,216.001,60,117.998,60C67.002,60,50,62.998,50,74.004
		C50,85,62.002,125,85,187.998c3.999,11.006,30,12.998,113.999,10C258.999,197.002,311.001,192.998,313.999,190z"/>
</g>
</svg>
