<?xml version="1.0" encoding="utf-8"?>
<!-- Generator: Adobe Illustrator 12.0.0, SVG Export Plug-In . SVG Version: 6.00 Build 51448)  -->
<!DOCTYPE svg PUBLIC "-//W3C//DTD SVG 1.1//EN" "http://www.w3.org/Graphics/SVG/1.1/DTD/svg11.dtd" [
	<!ENTITY ns_svg "http://www.w3.org/2000/svg">
	<!ENTITY ns_xlink "http://www.w3.org/1999/xlink">
]>
<svg  version="1.1" id="Layer_1" opacity="0.4" xmlns="&ns_svg;" xmlns:xlink="&ns_xlink;" width="364" height="143"
	 viewBox="0 0 364 143" overflow="visible" enable-background="new 0 0 364 143" xml:space="preserve">
<g transform="translate(0.000000,143.000000) scale(0.100000,-0.100000)">
	<path fill="#FFFFFF" d="M3337.998,1360c-18.994-13.999-33.994-17.998-62.002-12.998c-38.994,5.996-43.994-2.002-20.996-33.003
		c20-26.001,19.004-41.001-5-71.001c-27.998-35.996-25-42.998,15-30.996c30,10,37.998,7.998,67.998-15
		c39.004-30,47.998-27.002,41.006,11.997c-5,22.002-1.006,28.999,20.996,38.999c14.004,7.002,32.998,12.002,40.996,12.002
		c27.002,0,9.004,25-21.992,30c-26.006,5-29.004,8.999-32.002,47.998C3377.998,1385,3372.998,1387.998,3337.998,1360z
		 M3402.998,1282.002l32.002-8.003l-30-7.998c-42.998-11.001-52.998-22.002-47.002-53.003l5-26.997L3340,1207.998
		c-22.998,21.001-40,27.002-70,22.002c-12.002-2.002-10.996,2.002,4.004,17.998c16.992,19.004,16.992,23.003,2.998,51.001
		l-15,31.001H3295c17.998,0,39.004,7.002,45.996,16.001c12.002,15,15,12.998,22.002-20
		C3370,1297.002,3377.998,1287.998,3402.998,1282.002z"/>
	<path fill="#FFFFFF" d="M587.002,1346.001c-60-25-140-83.999-157.002-117.002c-7.998-12.998-21.001-18.999-47.002-18.999
		c-20,0-55-8.999-77.998-20c-48.999-23.999-110-83.999-101.001-98.999C207.998,1085,235,1080,263.999,1080c50,0,53.999-2.002,100-50
		c26.001-27.998,42.002-50,35-50c-6.001,0-28.999,18.999-51.001,42.002c-40,43.999-45,45-25.996,2.998
		c13.999-31.001,80-75,85.996-57.002C410,975,416.001,980,421.001,980s7.998-25,6.001-55c-2.002-36.001,0.996-55,8.999-55
		c25,0,105,103.999,120,156.001C565,1058.999,580,1083.999,595,1093.999c42.002,28.003,117.002,220,101.001,261.001
		C687.998,1376.001,653.999,1372.998,587.002,1346.001z M658.999,1242.002c-25-79.004-67.998-138.003-127.998-176.001
		c-31.001-20-40-33.999-58.999-100C458.999,923.999,446.001,890,442.998,890c-2.998,0-2.998,22.998,0,50c5,38.999,3.003,50-7.998,50
		c-7.002,0-32.998,22.002-57.002,48.999c-40,46.001-46.997,50-95,53.003c-28.999,1.997-52.998,5.996-52.998,8.999
		c0,7.998,95,28.999,128.999,28.999c32.002,0,51.001,17.998,76.001,72.998c23.999,51.001,108.999,114.004,182.002,136.001
		c56.997,17.002,57.998,17.002,61.997-2.998C680,1323.999,672.002,1282.002,658.999,1242.002z M377.998,1175
		c-11.997-27.998-30.996-35-20.996-7.998c5,11.997,2.998,13.999-7.002,7.998c-8.999-5-11.001-3.999-6.001,3.999
		C347.998,1185,355,1187.998,360,1185s11.001-1.001,15,5C387.002,1210,388.999,1200,377.998,1175z M316.001,1157.998
		c-8.999-11.997-16.001-16.997-16.001-10c0,8.003-5,10-12.002,6.001c-6.997-3.999-7.998-2.998-3.999,5
		c3.999,6.001,12.002,8.999,17.002,6.001c5-3.999,11.997,1.001,15,10c3.999,8.999,8.999,13.999,11.001,11.001
		C330,1182.998,325,1171.001,316.001,1157.998z M403.999,1166.001c-2.998-8.999-10-16.001-15-16.001c-6.001,0-5,8.999,1.001,21.001
		C402.998,1195,413.999,1191.001,403.999,1166.001z"/>
	<path fill="#FFFFFF" d="M538.999,1272.998c-8.999-1.997-21.997-15-30-28.999c-31.001-58.999,52.002-112.998,100-65
		C661.001,1231.001,613.999,1292.998,538.999,1272.998z M577.998,1247.998c17.002-16.997,15-37.998-3.999-58.999
		c-12.998-13.999-21.001-16.001-35-7.998C507.002,1197.002,520,1260,555,1260C561.001,1260,571.001,1255,577.998,1247.998z"/>
	<path fill="#FFFFFF" d="M306.001,997.998c15-26.997,37.998-47.998,51.001-47.998c8.999,0,2.998,11.001-15,30
		C311.001,1011.001,292.998,1018.999,306.001,997.998z"/>
	<path fill="#FFFFFF" d="M3057.002,976.001C3035.996,962.002,3015,950,3009.004,950c-18.008,0-103.008-48.999-135-77.002
		c-54.004-47.998-145-161.997-165-208.994c-22.002-49.004-28.008-147.002-10-168.008c5.996-7.998,17.998-38.994,25.996-70
		c7.998-30.996,25.996-78.994,40-106.992c34.004-66.006,129.004-159.004,199.004-195c30.996-16.006,67.998-35,81.992-42.002
		c33.008-17.998,128.008-20,148.008-2.998c7.998,6.992,45,15,80,16.992c75,4.004,107.998,18.008,151.992,66.006
		c110,118.994,157.002,217.998,168.008,357.002c2.998,35,10.996,77.998,16.992,95.996c21.006,57.998-17.998,162.002-66.992,175
		c-11.006,2.998-35,22.002-53.008,42.002c-43.994,50-112.998,95-180,115c-30.996,10-60.996,23.999-66.992,31.997
		c-8.008,10-35,17.002-80,18.999C3102.998,1001.001,3090.996,998.999,3057.002,976.001z M3160.996,967.998l2.002-22.998
		l4.004,22.998C3169.004,980,3175,990,3180,990s15.996-10,25.996-22.002c11.006-15.996,15-16.997,11.006-5
		C3212.998,972.002,3215,980,3220,980s10.996-8.999,15-20c4.004-12.002,19.004-22.002,42.002-26.001
		c35.996-6.997,35.996-6.997,12.002-20c-29.004-16.001-22.002-17.998,17.998-3.999c18.994,7.002,37.998,7.002,53.994,1.001
		c23.008-8.999,22.002-10-20.996-28.999c-52.002-24.004-37.002-30,17.002-7.002c48.994,21.001,55,17.998,12.998-5
		c-40.996-22.998-22.998-27.002,20-5c17.002,8.999,30,11.001,30,6.001c0-6.001-12.998-17.002-30-26.001
		c-15.996-8.999-30-17.002-30-20c0-7.002,60,17.002,65.996,26.001C3432.002,862.002,3450,852.998,3450,840
		c0-5-15.996-13.999-35-21.001c-19.004-6.997-35-16.997-35-21.001c0-8.999,47.998,8.003,67.998,24.004
		c9.004,7.998,16.006,7.998,22.998,0.996c7.002-6.997-6.992-18.999-42.998-35.996c-28.994-14.004-45.996-26.001-37.998-26.001
		c9.004-1.001,32.998,7.998,55,18.999c47.002,23.999,45,23.999,45,6.001c0-8.003-17.002-20-37.002-26.001
		c-33.994-11.001-65.996-30-50.996-30c13.994,0,75,23.999,87.998,35c24.004,20,87.998,6.001,74.004-16.001
		c-3.008-5-32.002-22.998-65-38.999c-32.002-17.002-59.004-32.002-59.004-35c0-7.998,65,17.998,102.002,41.001
		c23.994,15,38.994,20,43.994,12.998c8.008-12.998,8.008-12.998-61.992-48.999c-32.002-15.996-52.002-30-43.008-30
		c8.008,0,38.008,10.996,64.004,25c27.002,12.998,50,22.998,50.996,22.002c1.006-1.006,5-14.004,9.004-30
		c7.002-25,4.004-29.004-50-52.998c-44.004-20-59.004-24.004-67.998-14.004c-7.002,5.996-7.002,10-2.002,9.004
		c12.998-4.004,102.998,40,112.002,52.998c7.002,12.002,7.002,12.002-70-22.002c-30-14.004-57.998-32.998-60-42.998
		c-7.998-29.004-37.998-10-32.002,22.002c5,25,5,25-5.996,3.994c-17.002-32.002-37.002-27.998-48.008,10l-10,32.002l1.006-30
		c2.998-37.002-42.998-87.998-70-77.998c-14.004,5.996-15,3.994-4.004-9.004c20-25,4.004-50.996-28.994-45.996
		c-35,5-39.004-7.002-5-16.006c31.992-7.998,40.996-35,18.994-52.998c-17.002-12.998-15.996-13.994,5-7.998
		c27.998,7.998,37.998-14.004,22.002-47.002L3299.004,355l20,22.998c25,27.998,40.996,27.998,41.992,0V355l9.004,22.002
		c10.996,27.002,27.998,28.994,47.002,5C3430,365.996,3430,365.996,3427.998,385c-3.994,30.996,10,47.002,32.002,35
		c17.998-10,72.002,2.002,97.998,22.998c6.006,5,12.002,6.006,12.002,1.006c-0.996-20-19.004-36.006-65.996-54.004
		c-27.002-10-41.006-19.004-31.006-20c10,0,32.998,5.996,51.006,14.004c30.996,12.998,32.998,12.998,28.994-4.004
		c-2.998-10-22.998-25.996-45-35s-37.998-17.998-35-20.996c2.998-3.008,15,0,27.002,5.996s24.004,9.004,27.002,5.996
		c10.996-10-9.004-25-42.002-31.992c-20-3.008-37.998-10-40.996-15c-7.002-12.002,8.994-11.006,41.992,0.996
		c23.008,9.004,25,9.004,15-4.004c-5.996-7.998-22.998-16.992-36.992-20C3450,262.002,3442.002,255,3445,250
		c2.998-5.996-0.996-10-10-10c-10.996,0-15,5-10.996,15c2.998,7.998,0.996,15-4.004,15c-5.996,0-10-7.002-10-15.996
		c0-9.004-7.002-14.004-17.002-12.002s-23.994-2.998-30-12.002c-10.996-12.998-13.994-12.998-22.998,0c-7.998,12.002-10,10-10-9.004
		c0-18.994-4.004-21.992-20-17.998c-17.002,4.004-20,2.002-14.004-15c5-17.002,3.008-20-10.996-13.994
		c-12.998,5-15.996,1.992-10.996-11.006c3.994-8.994,0.996-20-6.006-25c-10-5.996-10-7.998,0-7.998c6.006,0,12.002-4.004,12.002-10
		c0-5-17.002-10-39.004-10c-21.992,0-43.994-5.996-50.996-15c-17.002-20-30.996-19.004-24.004,2.998c5,16.006,5,16.006-8.994,0
		C3139.004,75,3120,75,3119.004,97.998c-1.006,16.006-2.002,16.006-6.006,0c-2.002-10-8.994-17.998-13.994-17.998
		s-9.004,7.998-10,17.998c0,10-3.008,12.002-6.006,5c-7.002-18.994-22.998-15.996-22.998,5c0,12.002-2.002,14.004-9.004,4.004
		c-5.996-10-12.998-7.998-31.992,7.002l-24.004,20l40,0.996c29.004,0.996,35,2.998,20.996,9.004
		c-18.994,6.992-18.994,7.998,2.002,28.994c21.006,21.006,21.006,22.002,2.998,22.002c-10,0-20.996,7.002-25,15
		c-2.998,7.998-0.996,15,4.004,15c5.996,0,10,5,10,10.996c0,8.008-4.004,9.004-12.998,0c-16.006-12.998-27.002-5-27.002,20
		c0,12.002-5,16.006-15,13.008c-9.004-4.004-17.998,1.992-22.998,16.992c-6.006,15-11.006,18.008-16.006,11.006
		c-5-9.004-12.998-9.004-27.998-1.006c-17.002,9.004-22.998,8.008-30-5c-7.002-11.992-12.998-13.994-22.002-6.992
		c-10,7.998-11.992,1.992-11.992-24.004c0.996-19.004,3.994-35,8.994-35c4.004,0,7.002-7.998,7.002-17.002
		c0-13.994-4.004-12.002-25,7.002c-39.004,37.002-80.996,109.004-105,179.004c-20.996,62.998-22.002,107.998-0.996,60.996L2760,435
		l-0.996,25c-2.002,40,0,42.998,15.996,30c17.998-15,20,0.996,2.998,17.998c-10,10-7.998,14.004,11.006,19.004
		c16.992,3.994,18.994,7.998,8.994,15s-8.994,10.996,6.006,22.998c10.996,7.998,15,15,8.994,15c-5.996,0-8.994,7.998-5.996,19.004
		c2.998,12.998,10.996,16.992,23.994,13.994c10-2.998,19.004,0,19.004,6.006c0,5.996-7.002,10.996-15,10.996
		c-22.002,0-17.998,19.004,7.998,40L2865,689.004l-22.002-6.006C2815.996,677.002,2810.996,700,2835,720
		c7.998,7.002,15,20,15,28.999c-0.996,11.001-5,8.999-14.004-7.998c-10-18.003-13.994-20-18.994-8.003
		c-2.998,8.003,0,20,5.996,26.001c7.998,8.003,7.998,11.001,0,11.001c-5.996,0-12.998-6.001-15.996-12.002
		c-2.002-6.997-7.002-10-11.006-5.996c-3.994,2.998,26.006,40,66.006,80.996c53.994,55,85.996,79.004,122.998,93.003
		c27.998,8.999,57.002,22.998,65.996,31.001C3072.002,975,3085,973.999,3070,955c-7.998-10-9.004-15-2.002-15
		c6.006,0,16.006,8.999,22.002,20c12.998,25,27.002,26.001,32.998,2.998c4.004-13.999,5-11.997,6.006,5
		C3130,980,3135.996,990,3145,990C3152.998,990,3160.996,980,3160.996,967.998z M2804.004,679.004
		c-1.006-34.004-10-73.008-24.004-104.004c-12.998-27.998-24.004-54.004-24.004-60C2755,505,2710,497.998,2710,507.998
		c0,2.998,7.998,14.004,17.998,25c16.006,19.004,16.006,20-5,7.998c-30-15-30,3.008-0.996,23.008
		C2734.004,572.998,2740,580,2734.004,580c-5,0-15-5-21.006-10.996c-18.994-19.004-12.998,31.992,6.006,55
		C2727.998,635,2730,640,2722.998,635.996c-20-10.996,15,66.006,39.004,87.002C2794.004,750,2805,738.999,2804.004,679.004z
		 M3590.996,600.996c-15-26.992-110.996-66.992-121.992-50c-11.006,19.004-4.004,26.006,37.998,33.008
		c20.996,2.998,48.994,11.992,62.998,20c14.004,7.998,25.996,13.994,27.998,15C3599.004,620,3595.996,612.002,3590.996,600.996z
		 M3430,580c22.002-12.002,35-67.002,25-100c-4.004-12.002-22.998-27.998-42.002-35.996c-18.994-9.004-32.998-18.008-30-20
		c2.998-3.008,16.006,0,29.004,5.996c17.998,10,20.996,10,10.996,0c-5.996-7.002-28.994-14.004-50-15.996L3335,410.996L3360,430
		c14.004,10.996,27.998,20,32.998,20c4.004,0,7.002,4.004,7.002,10c0,5-15.996,0-35.996-12.002c-30-17.998-37.002-18.994-45-7.002
		c-14.004,22.002-11.006,26.006,30.996,50c22.002,13.008,40,27.002,40,32.002s-15-0.996-34.004-12.002
		c-36.992-22.998-45.996-25-45.996-11.992c0,5,7.998,11.992,17.998,15c9.004,3.994,27.998,15.996,42.002,26.992l25,20L3360,545
		l-35-17.002l30,30C3387.998,590.996,3402.002,595,3430,580z M3580,559.004c0-5-20-19.004-45-30c-25-11.006-45-22.002-45-24.004
		c0-4.004,42.002,7.998,72.998,20c24.004,10,22.002-12.002-2.998-25c-27.998-15-85-9.004-85,7.998c0,7.998,20,24.004,45,37.002
		C3574.004,572.002,3580,572.998,3580,559.004z M3574.004,477.002C3564.004,449.004,3460,415,3460,439.004
		c0,23.994,14.004,40.996,34.004,40c20,0,20-1.006,0.996-9.004l-20-9.004h20c10.996,0,30.996,6.006,45,14.004
		C3572.002,492.998,3580.996,494.004,3574.004,477.002z M2992.002,240c40-40,48.994-77.998,18.994-87.998
		c-8.994-2.998-10.996,0-5.996,7.998c5.996,10,4.004,12.002-7.998,7.002c-22.002-7.998-49.004,2.002-40,15.996
		c3.994,6.006,0,7.998-11.006,4.004c-10-4.004-15-2.998-10.996,3.994c7.002,11.006-12.002,39.004-27.002,39.004
		c-5,0-5.996-5.996-2.002-12.002c5-10,3.008-10-6.992,0c-12.002,11.006-12.002,14.004,0,21.006c8.994,5.996,10,10.996,1.992,15
		C2882.998,265,2897.998,280,2927.002,280C2942.998,280,2965.996,265.996,2992.002,240z M3490,255.996
		c0-1.992-7.002-8.994-15-15.996c-12.998-10.996-14.004-10-9.004,4.004C3470.996,257.998,3490,267.002,3490,255.996z
		 M3445.996,219.004c10-16.006-35.996-57.002-93.994-84.004c-56.006-25.996-72.002-25.996-21.006,0
		c41.006,22.002,30,30.996-12.998,10c-32.002-15.996-32.002-15-12.002,2.002c12.002,10,30,23.994,40,30.996
		c17.002,11.006,17.002,12.002,2.002,7.998c-30-8.994-20,2.002,20,23.008C3410,232.002,3435.996,235,3445.996,219.004z"/>
	<path fill="#FFFFFF" d="M3050,900c-20-12.002-10-18.999,14.004-10c10.996,2.998,15,8.999,10,12.998
		C3067.998,906.001,3057.998,905,3050,900z"/>
	<path fill="#FFFFFF" d="M3317.998,902.998C3307.998,901.001,3300,895,3300,890c0-10,37.998-1.001,45.996,11.001
		C3350.996,910,3347.002,911.001,3317.998,902.998z"/>
	<path fill="#FFFFFF" d="M2919.004,858.999c-9.004-16.997-8.008-25,5-36.997c7.998-9.004,18.994-12.002,22.998-8.003
		c3.994,3.999,0.996,11.001-6.006,15c-7.998,5-10.996,17.002-5.996,30C2942.998,886.001,2934.004,886.001,2919.004,858.999z"/>
	<path fill="#FFFFFF" d="M3152.002,855C3140,828.999,3120,821.001,3120,842.002c0,5.996-5.996,2.998-14.004-8.003
		c-12.998-16.997-16.992-16.997-36.992-6.001C3050,840,3047.998,840,3052.998,827.002c7.002-20-27.998-54.004-37.002-35
		c-3.994,8.999-5,8.999-5-2.002c3.008-35-0.996-42.002-20.996-37.002c-10.996,3.003-20,1.001-20-3.999s5-8.999,10-8.999
		c5.996,0,10-7.002,10-15s-7.998-15-17.002-15c-12.998,0-13.994-2.998-5-12.002c16.006-15.996,15-37.998-2.002-37.998
		c-7.998,0-16.992-4.004-20-9.004c-3.994-5,3.008-6.992,13.008-3.994c25,5.996,31.992-31.006,13.994-72.002l-13.994-30l20,22.998
		c10,12.002,25.996,22.002,35,22.002c10,0,15.996-9.004,16.992-22.002V545l9.004,22.998c10,24.004,45,30,52.998,10
		c2.998-7.002,6.006-2.998,6.006,7.998c0.996,27.002,26.992,51.006,33.994,32.002c2.998-7.002,6.006-2.998,6.006,7.998
		c0.996,29.004,23.994,47.002,38.994,32.002c9.004-8.994,12.002-8.994,12.002-0.996c0,7.002-5,15-10,17.998
		c-19.004,12.002,9.004,45,37.998,46.001c27.002,0,27.002,0,4.004,10c-35,13.999-25,48.999,17.998,66.001L3275,810l-37.002-5
		c-53.994-7.998-80.996,8.999-72.998,46.001C3172.998,887.002,3167.002,888.999,3152.002,855z M3167.998,797.998
		c36.006-35.996-12.002-130.996-87.998-172.002c-27.998-15-54.004-25.996-57.002-22.998c-2.002,2.998,9.004,12.998,25,21.006
		C3065,632.998,3082.002,645,3085,650.996c4.004,6.006-10.996,1.006-34.004-10c-45-22.998-50.996-25-50.996-11.992
		c0,5,14.004,13.994,30,20.996c17.002,7.002,30,15.996,30,20.996c0,4.004-12.002,1.006-27.002-6.992
		c-35.996-18.008-37.998-18.008-40,5.996c-0.996,10.996,2.002,20,7.002,20s7.002,5.996,4.004,14.004
		c-3.008,7.998,2.998,18.994,15,24.995c31.992,17.002,37.998,12.002,10.996-8.999c-17.002-12.998-20-20-10-20
		c10.996-0.996,10-4.004-4.004-15c-10.996-7.998-15-15-10-15c6.006,0,19.004,7.002,30,15c14.004,10.996,16.006,15,4.004,15
		s-10.996,4.004,4.004,15c10.996,7.998,16.992,17.998,12.998,21.001c-4.004,3.999-1.006,13.999,5.996,21.997
		c10,13.003,9.004,14.004-12.998,3.003c-24.004-11.001-24.004-11.001-5.996,2.998C3055,772.998,3067.998,780,3072.998,780
		c4.004,0,6.006,3.999,2.998,8.999C3062.998,810,3147.998,817.998,3167.998,797.998z"/>
	<path fill="#FFFFFF" d="M3485.996,738.999c-31.992-16.997-55.996-33.003-52.998-36.001c7.998-7.002,92.002,34.004,107.002,53.003
		C3555.996,775,3555,773.999,3485.996,738.999z"/>
	<path fill="#FFFFFF" d="M3292.998,672.998C3270,657.002,3260.996,620,3280.996,620c5,0,7.002,5,3.008,10.996
		c-3.008,6.006,5.996,22.002,21.992,35C3337.998,692.002,3327.998,697.998,3292.998,672.998z"/>
	<path fill="#FFFFFF" d="M2887.002,672.998c-11.006-10-7.998-42.998,2.998-42.998c5,0,7.002,7.002,4.004,15
		c-4.004,7.998-1.006,15,5,15c5.996,0,10.996,5,10.996,10C2910,680.996,2897.002,682.998,2887.002,672.998z"/>
	<path fill="#FFFFFF" d="M3325,590c2.998-5,7.998-10,10.996-10c2.002,0,4.004,5,4.004,10c0,5.996-5,10-10.996,10
		C3324.004,600,3322.002,595.996,3325,590z"/>
	<path fill="#FFFFFF" d="M3060,470c-5.996-10.996-7.998-20-5-20s0.996-9.004-5-20c-7.998-15-5-24.004,17.002-44.004
		c15-13.994,30-22.998,32.998-20c2.998,3.008-5,14.004-15.996,23.008c-23.008,17.998-23.008,60.996-1.006,88.994
		c6.006,7.998,6.006,12.002-0.996,12.002C3075.996,490,3065.996,480.996,3060,470z"/>
	<path fill="#FFFFFF" d="M3170,455c0-7.998,2.002-15,4.004-15c1.992,0,10.996-2.998,20-5.996c22.998-9.004,20,8.994-4.004,23.994
		C3172.998,467.998,3170,467.998,3170,455z"/>
	<path fill="#FFFFFF" d="M2875,430c-4.004-17.002-5-34.004-2.002-35.996c2.998-3.008,7.998,8.994,12.002,25.996
		s5,34.004,2.002,35.996C2884.004,459.004,2879.004,447.002,2875,430z"/>
	<path fill="#FFFFFF" d="M2775,400c-5-15.996,7.998-60,17.998-60c2.002,0,2.998,17.998,2.002,40C2795,422.998,2785,432.002,2775,400
		z"/>
	<path fill="#FFFFFF" d="M3227.002,272.998c-2.002-5-7.002-20.996-11.006-37.002c-5.996-25-5-27.998,7.002-16.992
		c16.006,12.998,29.004,60.996,16.006,60.996C3235,280,3229.004,277.002,3227.002,272.998z"/>
	<path fill="#FFFFFF" d="M3127.998,207.998c9.004-8.994,15-8.994,24.004,0c8.994,9.004,7.002,12.002-12.002,12.002
		S3119.004,217.002,3127.998,207.998z"/>
	<path fill="#FFFFFF" d="M2715,600c-2.998-5-0.996-10,4.004-10c5.996,0,10.996,5,10.996,10c0,5.996-2.002,10-4.004,10
		C2722.998,610,2717.998,605.996,2715,600z"/>
	<path fill="#FFFFFF" d="M3345,470c-32.998-22.002-29.004-25.996,10-7.998c14.004,5.996,25,15,25,20
		C3380,492.998,3379.004,492.998,3345,470z"/>
	<path fill="#FFFFFF" d="M240,937.998c-92.002-80.996-162.002-150-157.002-153.999c3.003-2.998,19.004,2.002,36.001,11.001
		C137.002,803.999,155,807.998,160,805s13.999,3.999,20,15c11.001,20,10,20-26.001,5l-36.997-15l48.999,42.002
		C261.001,936.001,285,957.998,280,962.998C277.002,966.001,258.999,953.999,240,937.998z"/>
	<path fill="#FFFFFF" d="M228.999,855c-36.001-43.999-65-71.001-68.999-65c-3.999,7.002-27.998-15-57.998-52.002
		c-29.004-35-47.002-65-41.001-67.002c11.997-3.994,50,28.008,45,38.008c-2.002,2.998,10,21.997,26.001,40.996
		c16.997,18.999,27.998,27.002,25,17.998c-4.004-10-3.003-17.998,0.996-16.997C166.001,752.002,310,915,310,923.999
		C310,942.998,283.999,921.001,228.999,855z"/>
	<path fill="#FFFFFF" d="M267.002,847.998c-45-56.997-68.003-93.999-65-103.999c1.997-5-15-36.001-36.001-68.999
		c-21.001-32.998-35-50.996-31.001-40c18.999,50.996,12.998,55-10,5.996C92.002,572.002,96.001,539.004,130,595
		c12.998,22.002,37.002,57.998,52.002,79.004l28.999,39.995L205,659.004L200,605l58.999,122.002
		C335,882.002,337.998,935,267.002,847.998z M291.001,823.999C280,802.998,260,758.999,245,727.998
		c-30-65.996-37.998-72.998-23.999-23.994c5,18.994,7.998,37.998,6.997,42.998c-2.998,8.999,73.003,125,78.003,120
		C307.998,865,301.001,846.001,291.001,823.999z"/>
	<path fill="#FFFFFF" d="M123.999,725c-16.001-12.002-16.001-13.999-2.998-15c8.999,0,21.997,7.002,28.999,15
		C166.001,743.999,150,743.999,123.999,725z"/>
</g>
</svg>
