<?xml version="1.0" encoding="utf-8"?>
<!-- Generator: Adobe Illustrator 12.0.0, SVG Export Plug-In . SVG Version: 6.00 Build 51448)  -->
<!DOCTYPE svg PUBLIC "-//W3C//DTD SVG 1.1//EN" "http://www.w3.org/Graphics/SVG/1.1/DTD/svg11.dtd" [
	<!ENTITY ns_svg "http://www.w3.org/2000/svg">
	<!ENTITY ns_xlink "http://www.w3.org/1999/xlink">
]>
<svg  version="1.1" id="Layer_1" xmlns="&ns_svg;" xmlns:xlink="&ns_xlink;" width="496" height="460" viewBox="-1.5 5.5 496 460"
	 overflow="visible" enable-background="new -1.5 5.5 496 460" xml:space="preserve">
<g transform="translate(0.000000,478.000000) scale(0.100000,-0.100000)">
	<path d="M2037.002,4660.002c-479.004-87.002-884.004-396.006-1113.003-851.006c-43.999-86.992-107.998-280-125-372.998
		c-6.997-37.002-17.998-68.994-22.998-70.996c-81.001-19.004-128.003-41.006-148.003-71.006
		c-21.997-31.992-22.998-31.992-88.999-26.992L472.998,3273l-6.997-37.998c-6.001-30-3.003-44.004,12.998-66.006
		c28.999-38.994,15-78.994-28.999-78.994c-26.001,0-30-2.998-30-29.004c0-15.996-8.999-53.994-21.001-83.994
		c-18.999-49.004-26.001-57.002-71.997-80c-65-31.006-140-47.002-222.002-47.002c-58.999,0-65-2.002-83.999-29.004
		c-27.002-37.002-26.001-55,1.001-90.996c20.996-29.004,23.999-30,108.999-30c47.998,0,91.001,5,93.999,10
		c12.002,20,25,8.994,25-21.006c0-18.994,7.002-36.992,17.002-45c15-10.996,21.997-8.994,43.999,13.008
		c16.997,15,36.001,22.998,50,20.996c20-2.002,23.999-10,26.997-45c3.003-37.002,0-42.998-26.997-59.004
		c-35-20.996-36.001-21.992-15-48.994c7.998-11.006,18.999-37.002,25-57.998c8.999-35,12.998-38.008,36.001-32.002
		c13.999,2.998,48.999,25.996,76.997,50.996c28.003,24.004,56.001,44.004,62.002,44.004c28.999,0,36.001-31.006,32.998-131.006
		L575,2297.004l33.999-12.002c18.003-6.006,42.002-21.006,52.002-34.004L680,2228l28.999,20.996c63.003,45,260,55,288.003,15
		c7.998-10,40.996-56.992,75-103.994c70-97.998,231.997-262.998,331.997-337.002c528.999-392.998,1280.005-390.996,1806.001,5.996
		c155,116.006,329.004,312.002,415.996,467.002l34.004,61.006l89.004,5c67.998,3.994,97.998,10.996,125,26.992l35,22.002l5-22.998
		c2.998-12.998,6.992-35.996,7.998-52.998c2.998-27.002,7.002-30,47.002-37.002c35.996-5.996,50.996-4.004,77.998,12.998
		c17.998,11.006,32.998,25,32.998,31.006c0,5-15.996,27.998-35,50.996c-40,47.002-40,42.998-20,112.002l15.996,52.002l67.002,7.998
		c104.004,12.002,162.998,10,212.002-7.998c25-9.004,70.996-18.008,104.004-19.004l58.994-2.998l12.998,37.998
		c12.002,32.998,11.006,42.002-0.996,60.996c-12.002,19.004-30,24.004-107.002,35c-88.994,12.002-93.994,13.008-142.998,59.004
		c-27.998,25.996-64.004,55.996-80,67.998c-27.002,19.004-27.998,22.002-15.996,51.006c17.998,43.994,50,70.996,95.996,80.996
		c82.002,17.002,65,110.996-29.004,159.004l-47.998,25l-32.002-31.006c-57.998-55.996-95-38.994-95.996,44.004
		c0,57.002-119.004,240.996-182.002,282.998c-37.998,25.996-48.994,40-57.998,74.004c-150.996,595.996-600,1040-1182.998,1168.994
		C2477.998,4682.004,2182.998,4687.004,2037.002,4660.002z M2270,4320.998c6.001-15.996,25-40.996,41.001-57.002
		c17.998-16.992,31.997-42.998,35-65.996l6.997-37.998h64.004c47.998,0,75.996,5.996,112.998,25c30,15,65.996,25,92.002,25
		c40,0,45-2.998,75.996-50c37.998-59.004,72.998-67.002,112.002-25c27.998,30,50.996,32.002,75,5
		c27.002-30,47.998-32.002,104.004-10c28.994,10.996,53.994,20,55.996,20s12.002-24.004,20.996-52.998
		c14.004-46.006,22.002-56.006,50-66.006c19.004-7.002,51.006-30,72.002-52.998l39.004-40l88.994,20
		c49.004,10.996,92.002,17.998,96.006,15.996c5-2.998,7.998-13.994,7.998-23.994c0-20-10.996-25-80-35
		c-80-12.002-77.998-10-67.998-62.998c5-26.006,5.996-66.006,2.998-89.004l-5.996-40.996l42.998-14.004l42.998-15l-47.998-17.998
		c-26.006-10-47.002-20-47.002-22.998c0-3.008,12.002-35,25.996-71.006c27.002-65.996,28.008-95,8.008-187.998l-6.006-32.998h42.998
		c24.004,0,61.006,5,82.002,10.996c32.002,7.998,37.002,14.004,37.002,39.004c0,60,9.004,65,50,25
		c32.002-32.002,42.002-36.006,67.998-30c17.002,2.998,37.998,17.002,47.002,30.996l15.996,25l29.004-25
		c27.998-22.998,40.996-27.002,120.996-40.996c35-5,37.002-7.998,48.008-62.998c21.992-101.006,23.994-257.002,6.992-389.004
		c-8.994-67.002-15.996-140.996-15.996-165.996c0-44.004,0-44.004,45-57.002c55.996-16.006,60.996-22.998,37.998-55
		c-12.002-17.002-23.994-22.998-37.998-20c-75,20.996-82.002,18.994-112.998-24.004c-17.998-25-36.006-68.994-47.002-113.994
		c-27.002-120-25-117.002-97.002-117.002c-47.998,0-65.996,3.994-82.998,20c-30,27.998-70,12.998-80-29.004
		c-9.004-42.998-22.002-47.002-52.998-17.998c-15,14.004-42.002,27.998-59.004,32.002c-30,5.996-33.994,3.994-50-29.004
		c-13.994-30-22.002-35.996-47.998-35.996c-25,0-35-6.006-44.004-27.002c-15-32.002-23.994-24.004-45.996,47.002
		c-20,62.002-72.002,140-115,170c-20,13.994-37.002,17.998-59.004,13.994c-20.996-5-31.992-1.992-35,7.002
		c-16.992,55-12.998,52.998-58.994,25c-86.006-53.994-176.006-95-232.998-108.994c-42.002-10-81.006-30-134.004-68.008
		c-42.002-30-86.001-60.996-100-70L2386.001,2303l-3.999-239.004l-4.004-240l36.001-72.998c21.001-40,35-75.996,32.002-78.994
		c-10-10-153.999-15-238.999-7.002l-85,7.002l-6.001,61.992c-6.001,54.004-3.003,71.006,22.998,141.006
		c41.001,105,55,180.996,52.002,290c-2.002,113.994-16.001,185.996-43.003,220.996c-11.997,14.004-53.999,52.002-92.998,84.004
		c-71.001,55.996-73.999,57.002-151.001,62.998c-76.997,7.002-77.998,7.002-108.999-22.998l-32.002-31.006L1745,2520.002
		c-17.998,40-72.002,90-97.002,90c-27.998,0-77.998-41.006-115-94.004c-20.996-30-40.996-55-45-55.996
		c-3.999,0-13.999,13.994-22.998,30c-12.998,25-22.002,30-50,30c-22.002,0-37.998-6.006-43.999-17.002
		c-26.001-45.996-27.002-45.996-58.999-29.004c-53.003,27.002-83.003,21.006-117.002-25.996
		c-16.001-22.998-43.999-69.004-61.001-102.002l-31.001-60l-20.996,41.006c-25,47.998-37.002,55-117.002,61.992l-60,6.006
		L862.998,2458c-42.998,65.996-103.999,220.996-128.999,327.998c-11.001,50-11.997,90-3.999,212.998
		c12.002,179.004,25,215,78.999,228.008c28.003,6.992,37.002,15,45,40.996c7.002,27.002,6.001,35-8.999,45.996
		c-16.001,12.002-17.998,20-8.999,62.002c7.998,44.004,11.997,49.004,43.999,57.002c22.002,5.996,47.998,5,71.001-2.002
		c67.998-20.996,86.001-15.996,92.998,27.002c16.001,99.004,0,142.002-91.001,245c-32.998,37.002-33.999,40-16.997,57.998
		c21.997,25,31.997,24.004,73.999-5c18.999-12.998,48.999-25,67.002-27.998c30-4.004,31.997-2.002,43.999,40l11.997,44.004
		l54.004-7.002c45-5,56.997-2.998,83.999,15l30,22.002l26.997-26.006c23.003-20.996,34.004-23.994,65-18.994
		c59.004,8.994,78.003,67.998,51.001,160.996l-6.997,22.998l38.999-15.996c32.998-14.004,40-14.004,51.997-1.006
		c13.003,13.008,13.003,20-0.996,58.008c-10,23.994-17.002,46.992-17.002,51.992c0,18.008,143.999-121.992,162.002-156.992
		l18.999-39.004l23.999,22.002c18.999,17.998,23.999,35.996,30,102.002l7.002,80l78.999,77.998
		C1873.999,4203,1915,4253,1922.998,4270.998l14.004,34.004l18.999-32.002c21.997-37.998,36.001-40,118.999-14.004
		c88.999,29.004,127.998,47.002,148.999,70C2248.999,4357.004,2255,4355.998,2270,4320.998z"/>
	<path d="M2236.001,3872.004c-3.003-20-6.001-56.006-6.001-79.004c0-40-11.001-55-25-32.998c-3.999,5.996-15,5-30-2.002
		c-22.998-10-23.999-15-27.002-135L2145,3498.996l50-48.994c27.998-27.998,57.002-50,63.999-50c7.002,0,26.001-14.004,41.001-30
		l27.998-30l22.002,35c22.998,37.998,22.998,52.002-2.002,202.002c-8.999,55.996-13.999,65-43.999,83.994
		C2275,3678.996,2270,3687.004,2270,3720.002c0,20.996,7.002,45,15,52.998c22.002,22.998,8.999,102.002-20,120.996
		C2242.998,3908,2242.002,3908,2236.001,3872.004z"/>
	<path d="M2937.998,3673.996c-38.994-30-47.002-40.996-52.998-80c-2.998-25-5-46.992-2.998-48.994c10-10,70-7.002,90.996,3.994
		c45,24.004,60,96.006,29.004,136.006L2984.004,3708L2937.998,3673.996z"/>
	<path d="M2472.002,3518c-6.001-24.004-14.004-57.998-17.002-75l-7.002-32.998h71.006H2590V3453
		c0,34.004-5.996,49.004-27.002,69.004c-15.996,15-40,28.994-53.999,32.998C2485,3560.998,2482.002,3558,2472.002,3518z"/>
	<path d="M1592.998,3513l-21.997-15l23.999-32.998c22.998-29.004,31.001-32.998,90-37.002c36.001-2.998,76.001-12.998,90-22.002
		c35-22.998,93.999-20.996,121.001,5c21.001,20,21.001,22.002,6.001,49.004c-21.001,37.002-41.001,47.998-101.001,55.996
		c-50,6.006-51.001,6.006-51.001-20c0-13.994-2.002-25.996-5-25.996c-16.001,0-72.002,28.994-83.999,42.998
		C1643.999,3533.996,1622.002,3533.996,1592.998,3513z"/>
	<path d="M2967.002,3115.998c-36.006-18.994-67.002-43.994-80-65c-17.002-27.998-17.998-33.994-5-28.994
		c7.998,3.994,35.996,10,62.002,12.998c36.992,5.996,50.996,3.994,65.996-10c17.002-16.006,22.002-16.006,42.002-2.998
		c12.998,7.998,45.996,22.998,75,31.992c43.994,15,52.998,22.002,57.998,48.008c9.004,40.996-4.004,47.998-90,46.992
		C3037.002,3148,3015,3142.004,2967.002,3115.998z"/>
	<path d="M1981.001,2998c-10-25.996-1.001-45.996,60-142.998c20-32.998,42.998-79.004,50-102.002
		c6.997-24.004,15-42.998,16.997-42.998c3.003,0,15,8.994,27.002,20c16.001,15,27.002,17.998,50,10.996
		c23.999-5.996,42.002-2.002,85,19.004c30,15,73.999,30.996,97.998,35c30,5,42.002,12.002,42.002,23.994
		c0,9.004,12.002,41.006,26.001,70c25,49.004,26.001,54.004,10,69.004c-16.001,15.996-18.999,15-48.003-20
		c-30-37.998-30.996-37.998-101.997-37.998H2225l-25,40c-32.002,52.002-68.999,67.998-105,43.994
		c-25-15.996-27.002-15.996-52.998,3.008C1993.999,3022.004,1990,3022.004,1981.001,2998z"/>
	<path d="M1815,2915.002c-17.002-47.998-21.001-52.998-33.999-41.006c-31.001,27.002-57.002,28.008-70,3.008
		c-6.001-12.002-33.003-33.008-58.003-47.002c-32.998-17.998-48.999-32.998-53.999-54.004c-5-15-15-35.996-23.999-45.996
		c-15-17.002-15-20,0-42.998c15-23.008,23.999-25,115-31.006c55-2.998,145-8.994,200-12.002c97.002-5.996,100-5.996,100,15
		c0,12.002-12.998,40-30,63.008c-18.999,25-30,52.998-30,72.998c0,17.998-7.002,37.998-16.001,45.996
		c-8.999,7.002-28.999,39.004-45,71.006c-16.001,31.992-31.001,57.998-32.998,57.998C1835,2970.002,1825,2945.002,1815,2915.002z"/>
	<path d="M3435.996,2935.002c-21.992-17.002-75.996-20-75.996-5c0,5.996-15,10-34.004,10c-33.994,0-35-1.006-37.998-42.002
		l-2.998-42.998l-60-2.998c-79.004-3.008-105-9.004-105-26.006c0-10,24.004-15.996,87.998-20.996
		c72.998-6.006,91.006-11.006,112.998-31.006l26.006-25l12.002,30c18.994,45,91.992,57.002,111.992,19.004
		c27.002-50.996,63.008-50.996,80,0c6.006,20,20,47.998,31.006,60.996c20.996,28.008,10.996,41.006-34.004,41.006
		c-13.994,0-40,10.996-55.996,25C3457.002,2953.996,3460,2953.996,3435.996,2935.002z"/>
	<path d="M2632.002,2895.002c-9.004-19.004-9.004-31.006,0-50c8.994-20,20-25,70-31.006c50-5.996,60.996-10.996,75-35
		c15-25,23.994-28.994,58.994-28.994c49.004,0,94.004,30.996,94.004,63.994c0,20-5.996,24.004-50,29.004
		c-32.998,4.004-65.996,17.998-102.002,40.996C2710.996,2930.002,2650,2933.996,2632.002,2895.002z"/>
	<path d="M1037.998,2837.004c-20.996-10-23.999-15-15-28.008c23.003-30,56.001-38.994,147.002-38.994c107.002,0,130,8.994,130,50v30
		l-117.002-1.006C1116.001,2848.996,1053.999,2843,1037.998,2837.004z"/>
	<path d="M2236.001,2672.004c-13.999-16.006-15-29.004-7.002-84.004c8.999-62.002,77.002-227.002,93.003-227.998
		c3.999,0,20,17.998,33.999,40c25,37.002,30,40,75,40c42.998,0,51.997,5,101.001,48.994c30.996,28.008,67.002,51.006,87.998,56.006
		c19.004,3.994,49.004,18.994,65.996,33.994c17.002,14.004,39.004,31.006,50,38.008c16.006,10,11.006,11.992-32.998,11.992
		c-47.998,1.006-53.994,4.004-67.998,32.002l-15.996,30l-43.008-33.994c-22.998-19.004-60.996-41.006-84.995-48.008
		c-43.003-12.998-52.002-8.994-63.999,24.004c-1.001,4.004-27.002,10.996-58.003,15.996c-30,4.004-66.001,15-78.999,24.004
		C2260,2693.996,2257.002,2693.996,2236.001,2672.004z"/>
	<path d="M4615,1383c-120-62.998-167.002-202.998-107.002-320c57.002-110,196.006-154.004,310-97.002
		c174.004,86.006,167.998,344.004-10,417.998C4760,1405.002,4654.003,1403.996,4615,1383z M4790,1328
		c130.996-65.996,130-245.996-0.996-314.004c-40-20-113.008-17.998-159.004,6.006c-124.004,62.998-115.996,252.002,14.004,310.996
		C4697.998,1355.998,4735.996,1355.002,4790,1328z"/>
	<path d="M4650,1185.998c0-98.994,0.996-105.996,20-105.996c17.002,0,20,7.002,20,37.998c0,20.996,2.998,40.996,5.996,45
		c12.002,12.002,35-7.002,55-44.004c15-30,25-38.994,44.004-38.994c30.996,0,30.996,3.994,0.996,57.002
		c-20.996,35.996-21.992,43.994-10,53.994c18.008,15,18.008,62.998-0.996,79.004c-7.998,5.996-40.996,13.994-75,17.002l-60,5.996
		V1185.998z M4745,1225.002c0-14.004-7.998-21.006-27.002-22.998c-23.994-3.008-27.998,0-27.998,22.998s4.004,25.996,27.998,22.998
		C4737.001,1245.998,4745,1238.996,4745,1225.002z"/>
	<path d="M1875,1375.998c-335-65-537.998-302.998-537.998-630.996C1337.002,443,1503.999,221.995,1795,138
		c67.998-19.004,103.999-22.998,240-22.998c178.999,0,266.001,15,392.998,66.992l72.002,30v167.002v167.002L2431.001,513
		c-228.003-110-466.001-94.004-587.002,40c-56.001,62.002-78.999,134.004-71.001,225c14.004,175,149.004,282.002,356.001,282.002
		c100,0,183.003-21.006,281.001-70l80-40v180v180l-37.002,15.996C2322.002,1380.002,2030,1405.998,1875,1375.998z"/>
	<path d="M3022.998,1375.002C2870,1333,2770,1230.998,2740,1085.998c-34.004-165.996,47.998-315,225.996-415
		c226.006-125.996,244.004-140.996,230-195.996c-16.992-68.008-136.992-85-273.994-39.004
		c-42.002,14.004-86.006,30.996-97.002,37.998s-37.002,22.002-57.002,35L2730,531.995v-170v-170l57.998-20.996
		C2885.996,135.002,2970,120.002,3100,113.997c189.004-8.994,309.004,21.006,397.002,101.006
		c157.998,140.996,157.002,382.002-1.006,520c-26.992,23.994-91.992,67.002-145,95.996C3199.004,913,3155,945.002,3140,980.002
		c-27.002,65,27.998,112.998,127.998,110.996c70,0,172.002-47.998,250-115.996L3570,928v165.996v165L3542.998,1278
		c-52.998,37.002-152.998,82.002-215,97.002C3249.004,1393,3092.002,1393,3022.998,1375.002z"/>
	<path d="M300,755.002v-625h465h465v155v155H985H740v470v470H520H300V755.002z"/>
	<path d="M3820,750.002v-630h225h225v630v630h-225h-225V750.002z"/>
</g>
</svg>
