<?xml version="1.0" encoding="utf-8"?>
<!-- Generator: Adobe Illustrator 12.0.0, SVG Export Plug-In . SVG Version: 6.00 Build 51448)  -->
<!DOCTYPE svg PUBLIC "-//W3C//DTD SVG 1.1//EN" "http://www.w3.org/Graphics/SVG/1.1/DTD/svg11.dtd" [
	<!ENTITY ns_svg "http://www.w3.org/2000/svg">
	<!ENTITY ns_xlink "http://www.w3.org/1999/xlink">
]>
<svg  version="1.1" id="Layer_1" xmlns="&ns_svg;" xmlns:xlink="&ns_xlink;" width="486" height="586"
	 viewBox="253.5 206.5 486 586" overflow="visible" enable-background="new 253.5 206.5 486 586" xml:space="preserve">
<g transform="translate(0.000000,1000.000000) scale(0.100000,-0.100000)">
	<g>
		<path fill="#80C358" d="M4155,7422.003c-174.004-296.005-179.004-628.007-14.004-868.007
			c53.008-76.992,97.002-121.992,204.004-206.992c55-44.004,100.996-80,102.998-82.002
			c4.004-2.998,112.002-1269.004,107.998-1272.002c-1.992-2.002-68.994,92.002-148.994,208.994l-145,213.008L4255,5646.994
			l-7.002,233.008l27.002,32.002c15.996,17.998,34.004,46.992,42.002,65c18.994,45.996,15.996,130.996-7.002,180
			c-17.998,41.992-105,142.998-120.996,142.998c-15,0-104.004-102.002-125-142.998c-45-89.004-40-152.002,20.996-247.002
			c35-54.004,35-56.006,35-162.002c0-59.004-2.998-107.998-7.002-107.002c-5,0-77.002,100.996-160.996,225l-152.002,225
			l22.002,82.002c15.996,60.996,22.002,110.996,22.002,197.002c0.996,140.996-20,202.002-96.006,285.996
			c-72.002,77.998-122.002,109.004-272.002,169.004L3345,6878l-17.998-39.004c-35-75.996-57.002-188.994-57.002-288.994
			c0-144.004,32.998-241.006,112.998-327.002c55-60,86.006-80,182.998-122.998l84.004-35l180.996-265
			c181.006-265,201.006-296.006,182.002-289.004C3820.996,5585.002,3805,5593,3779.003,5635.002
			c-36.006,57.998-87.002,92.998-152.002,106.992c-50,11.006-62.002,9.004-137.998-15.996
			c-117.002-37.002-116.006-37.002-100-82.998C3410,5580.998,3470,5500.998,3515,5475.002c55-33.008,117.998-40,179.004-21.006
			l47.998,15l217.002-85L4175,5298l120-176.006c65.996-96.992,157.998-232.998,205-300.996l85-125l10-120l10-120.996l62.998,0.996
			c34.004,0.996,65,4.004,67.998,7.002c4.004,2.998-16.992,277.998-45,608.994c-27.998,332.002-50.996,610-50.996,619.004
			s62.002,85,137.998,170l139.004,154.004l72.998,25c180.996,60.996,277.002,188.994,287.002,385c5,87.002-15,227.002-35,247.002
			C5230,6683.996,5020,6603,4960.996,6563c-105-72.002-165-179.004-176.992-310.996c-3.008-37.002-1.006-88.008,3.994-113.008
			l9.004-46.992l-85-96.006c-47.002-52.998-86.006-95-87.998-92.998c-2.002,2.002-11.006,84.004-20,180.996l-16.006,178.008
			l46.006,98.994c65,137.002,86.992,230,86.992,359.004c0,62.998-5.996,128.994-15.996,165
			c-20.996,82.998-84.004,207.002-144.004,287.002c-50.996,66.992-83.994,96.992-262.998,246.992L4200,7500.001L4155,7422.003z
			 M4450,6815.002v-276.006l-67.002,3.008l-67.998,2.998L4312.001,6753L4310,6960.002h-35h-35v65v65h105h105V6815.002z
			 M3642.001,6583.996c77.998-40,112.002-157.998,68.994-240.996c-66.992-132.002-241.992-130.996-301.992,0.996
			c-24.004,52.002-24.004,110,0,161.006C3450.996,6597.004,3550.996,6630.998,3642.001,6583.996z M5100.996,6443
			c16.006-10,39.004-37.002,50-60.996c74.004-152.002-110-282.002-220.996-156.006c-54.004,62.002-37.002,172.002,32.998,214.004
			C5002.998,6465.002,5062.001,6465.998,5100.996,6443z M4220,6050.002v-100h-25c-24.004,0-25,2.002-25,75c0,60-2.998,75-15,75
			c-9.004,0-15,8.994-15,25c0,22.998,4.004,25,40,25h40V6050.002z M3640,5595.002v-95h-30h-30v70c0,40-4.004,70-10,70
			c-5,0-10,10.996-10,25c0,22.998,4.004,25,40,25h40V5595.002z"/>
		<path fill="#80C358" d="M3532.998,6510.002c-28.994-12.002-42.998-40-42.998-87.998c0-77.002,72.002-114.004,122.998-63.008
			c34.004,34.004,31.006,105-5.996,137.002C3577.001,6522.004,3567.001,6523.996,3532.998,6510.002z"/>
		<path fill="#80C358" d="M4995.996,6373.996c-41.992-41.992-22.998-116.992,31.006-121.992c22.998-2.002,35,2.998,47.002,20
			C5119.003,6335.998,5049.003,6428,4995.996,6373.996z"/>
		<path fill="#80C358" d="M6090,6678.996c-282.002-168.994-375-387.998-282.002-658.994l19.004-55l-82.002-165
			c-50-98.008-85-159.004-89.004-150c-2.998,7.998-13.994,50-25,92.998c-18.994,77.002-18.994,79.004,0,120
			c22.002,49.004,25,134.004,6.006,180c-21.006,47.998-61.006,90.996-134.004,142.002c-50.996,35.996-67.998,42.998-75,32.998
			c-65-95.996-90.996-184.004-77.998-257.002c10-55,50-112.998,102.998-148.994l42.998-30l41.006-162.002l40.996-161.006
			L5327.001,4953c-207.998-421.006-252.002-502.998-257.998-482.002c-4.004,12.998-17.002,114.004-30,225l-22.002,200L5134.003,5053
			c97.998,128.994,123.994,157.998,153.994,167.998c50,17.002,135,104.004,150,155c21.006,70.996,9.004,232.002-18.994,249.004
			c-16.006,10.996-140-48.008-184.004-87.002c-64.004-56.006-87.998-107.002-90.996-194.004c-2.002-72.002-2.002-72.002-70-162.998
			c-38.008-50-71.006-90.996-75-90.996c-3.008,0-13.008,56.992-21.006,127.998l-15,127.002l37.998,42.998
			c63.008,72.002,85,177.002,58.008,277.002c-13.008,48.994-80,195-89.004,195c-19.004,0-122.998-86.006-147.998-123.008
			c-44.004-65.996-57.002-105.996-56.006-181.992c0-58.008,6.006-84.004,37.002-155c37.002-85,37.002-85,99.004-606.006
			L4964.003,4273l30,8.994c16.992,5,58.994,8.008,93.994,6.006l62.998-2.998l272.002,550.996L5695,5386.994l177.002,77.002
			l177.002,77.998l63.994-15.996c79.004-20,100-20,166.006,0c67.998,20,131.992,82.998,170.996,167.002
			c52.002,112.002,52.998,107.998-42.998,140c-176.006,57.002-289.004,25.996-372.002-102.998
			c-35.996-56.006-42.998-62.002-132.002-101.006c-52.002-22.002-97.002-38.994-98.994-35.996
			c-3.008,2.998,30.996,75.996,75,162.998l78.994,159.004l74.004,38.994c82.998,45,177.998,130,215,194.004
			c83.994,142.998,85,352.998,0.996,535c-17.002,37.002-33.994,67.002-37.002,65.996
			C6207.998,6748.996,6152.998,6717.004,6090,6678.996z M6097.998,6293l2.002-182.998h-50h-50v140v140h-25
			c-22.002,0-25,3.994-25,37.998c0,20.996,2.998,42.002,7.002,45.996c3.994,4.004,37.002,6.006,72.998,4.004l65-2.998L6097.998,6293
			z M5570.996,6060.998C5595,6037.004,5600,6023,5600,5985.002c0-56.006-20.996-91.006-65-105c-44.004-15-80-4.004-110,32.002
			C5340.996,6012.004,5479.003,6153,5570.996,6060.998z M6300.996,5760.998c25-25,29.004-37.002,29.004-80.996
			c0-44.004-4.004-56.006-29.004-81.006c-40.996-40.996-97.998-40.996-142.998,0c-28.994,26.006-32.998,35-32.998,81.006
			c0,45.996,4.004,55,32.998,80.996C6202.998,5802.004,6260,5802.004,6300.996,5760.998z M4955,5655.998
			c40.996-17.002,55-42.002,55-95.996c0-56.006-42.002-100-95-100c-100.996,0-132.998,148.994-40.996,193.994
			C4912.001,5673,4912.998,5673,4955,5655.998z M5340,5405.002v-95h-30h-30v70c0,40-4.004,70-10,70c-5,0-10,10.996-10,25
			c0,22.998,4.004,25,40,25h40V5405.002z"/>
		<path fill="#80C358" d="M5472.001,6018c-25-25-6.006-87.998,27.002-87.998c26.992,0,42.998,23.994,38.994,62.002
			c-2.002,26.992-7.998,33.994-27.998,35.996C5495.996,6030.002,5479.003,6025.002,5472.001,6018z"/>
		<path fill="#80C358" d="M6190,5705.002c-14.004-36.006,2.998-75,32.998-75s47.002,17.998,47.002,50
			C6270,5731.994,6207.998,5751.994,6190,5705.002z"/>
		<path fill="#80C358" d="M4887.001,5603c-4.004-2.998-7.002-21.006-7.002-39.004c0-45,30.996-62.998,60-33.994
			c22.998,22.998,24.004,32.998,10,60.996C4940,5608.996,4900,5616.994,4887.001,5603z"/>
		<path fill="#80C358" d="M2787.998,4158c-53.999-15-120.996-77.998-147.998-140c-32.998-76.006-26.001-187.002,16.001-255
			c45-72.002,100-106.006,180-111.006C2918.999,3645.998,2978.999,3668,3020,3718c15.996,20,30,40,30,43.994
			c0,4.004-20,21.006-45,38.008c-42.998,30-43.999,30-55,10c-6.001-11.006-23.999-27.002-40-35c-85-44.004-170,20.996-170,130
			c0,87.998,42.002,145,107.998,145c39.004,0,87.002-23.008,96.001-45c5-14.004,13.003-12.002,48.999,15.996
			c22.998,17.998,44.004,34.004,46.006,35c1.992,2.002-6.006,15.996-18.008,32.998C2980,4145.998,2866.001,4180.002,2787.998,4158z"
			/>
		<path fill="#80C358" d="M3232.002,4150.998C3129.004,4115.002,3070,4026.994,3070,3906.994
			c0-110.996,47.002-191.992,134.004-232.998c167.998-77.998,345.996,40,345.996,230c0,70-15,117.998-52.998,167.998
			C3435.996,4151.994,3327.001,4185.002,3232.002,4150.998z M3370.996,4033c84.004-50,77.002-214.004-10.996-261.006
			c-39.004-20-97.998-7.998-132.998,27.002c-26.006,25-31.006,40-35,91.006c-2.998,35.996,0.996,71.992,7.998,90.996
			C3225.996,4043,3310.996,4068,3370.996,4033z"/>
		<path fill="#80C358" d="M6175,3943c-54.004-125-104.004-242.998-112.002-260L6050,3650.002h59.004c53.994,0,58.994,1.992,65,25
			c5.996,23.994,8.994,25,95.996,25s90-1.006,95.996-25c6.006-23.008,10-25,69.004-25h62.998l-110,257.998
			c-60.996,140.996-112.002,257.998-112.998,260C6274.003,4168.996,6229.003,4068,6175,3943z M6290,3863.996
			c29.004-67.998,27.002-73.994-25-73.994c-25,0-45,1.992-45,3.994c0,9.004,42.998,116.006,47.002,116.006
			C6269.003,3910.002,6280,3888.996,6290,3863.996z"/>
		<path fill="#80C358" d="M6960,3910.998v-260.996h55h54.004l2.998,125.996L7075,3903l142.998-132.002l142.002-132.002v261.006v260
			h-55h-54.004l-2.998-126.006l-2.998-127.002l-142.001,132.002L6960,4170.998V3910.998z"/>
		<path fill="#80C358" d="M3610,3905.002V3648l117.998,3.994c125,5,172.002,20,219.004,70c83.994,90,83.994,282.002,0.996,367.002
			c-55,57.002-80.996,65-215,69.004L3610,4161.994V3905.002z M3852.998,4011.994c26.006-25.996,31.006-40.996,35-90
			c7.002-95-28.994-143.994-115-157.998l-42.998-7.002v148.008V4053l45.996-6.006
			C3810,4043.996,3830.996,4033.996,3852.998,4011.994z"/>
		<path fill="#80C358" d="M4070,3905.002v-255h155h155v55v53.994l-97.002,2.998l-97.998,3.008v60v60l82.998,2.998l82.002,2.998
			v49.004v50h-85h-85v30v30h105h105v55v55h-160h-160V3905.002z"/>
		<path fill="#80C358" d="M5330,3905.002v-255h155h155v55v53.994l-97.002,2.998l-97.998,3.008L5442.001,3963L5440,4160.002h-55h-55
			V3905.002z"/>
		<path fill="#80C358" d="M5690,3905.002v-255h165h165v55v55h-105h-105v30v30h85h85v55v55h-85h-85v60v60h100h100v55v55h-160h-160
			V3905.002z"/>
		<path fill="#80C358" d="M6540,3905.002v-255h60h60v60c0,55.996,2.002,60,22.998,60c17.002,0,30-14.004,55-60l32.998-60H6835
			h64.004l-40,70.996l-41.006,70.996l26.006,27.002c52.998,55,70,145,41.992,224.004c-31.992,88.994-87.998,115.996-237.998,117.002
			H6540V3905.002z M6754.003,4028.996C6775,4013,6780,4000.002,6780,3965.002c0-57.002-22.998-85-77.998-92.002l-42.002-6.006
			v92.002v91.006h34.004C6712.998,4050.002,6739.003,4040.998,6754.003,4028.996z"/>
		<path fill="#80C358" d="M5450,3113v-272.998h65h65v120v120.996l55.996-62.998c31.006-35,59.004-64.004,64.004-66.006
			c4.004-0.996,30.996,24.004,60,58.008c27.998,32.998,55.996,60,60.996,60s9.004-52.002,9.004-115v-115h60h60V3108v267.002
			l-52.998-55c-29.004-30-84.004-90-122.998-133.008l-71.006-76.992l-88.994,95.996c-49.004,52.998-106.006,115-126.006,137.998
			l-37.002,41.006L5450,3113z"/>
		<path fill="#80C358" d="M6427.001,3270.998c-54.004-60-110-119.004-124.004-132.002l-25-23.994l-123.994,130l-123.008,130
			L6030,3108v-267.998h60h60v115c0,62.998,4.004,115,9.004,115s32.998-27.002,60.996-60c29.004-34.004,55.996-59.004,59.004-58.008
			c3.994,2.002,32.998,31.006,63.994,65l57.002,63.008v-120v-120h65h65v270c0,148.994-0.996,270-2.002,270
			C6525.996,3380.002,6480.996,3330.998,6427.001,3270.998z"/>
		<path fill="#80C358" d="M3634.003,3353.996c-87.002-32.002-153.008-125.996-161.006-228.994
			c-5.996-73.008,7.002-125,46.006-187.002c76.992-121.006,255-144.004,365-47.002c63.994,55.996,90,117.002,90,209.004
			c0,81.992-21.006,137.998-73.008,192.998C3840.996,3358.996,3720,3385.998,3634.003,3353.996z M3800.996,3223.996
			c47.002-40.996,63.008-132.002,35-197.998c-47.998-115-206.992-95.996-233.994,29.004c-15,67.998,2.002,126.992,45,165.996
			c32.998,27.998,40.996,30.996,85,27.002C3760,3245.002,3789.003,3235.002,3800.996,3223.996z"/>
		<path fill="#80C358" d="M4177.001,3355.998c-59.004-20.996-102.998-62.002-132.002-120
			c-90.996-187.002,22.002-405.996,210-405.996c137.998,0,217.998,77.998,232.002,225.996l5.996,64.004h-112.002H4270v-50v-50h45
			c50.996,0,55.996-10,20-45c-19.004-20-34.004-25-72.998-25c-80,0-122.002,51.992-122.002,151.992
			c0,94.004,45.996,148.008,125,148.008c27.002,0,44.004-8.008,65.996-30l30-30l51.006,33.994l50,34.004l-42.998,43.994
			C4354.003,3365.998,4264.003,3386.994,4177.001,3355.998z"/>
		<path fill="#80C358" d="M5065,3113.996c-60.996-140.996-110.996-260-112.998-265s22.998-8.994,55.996-8.994
			c52.002,0,62.002,2.998,67.002,20c5.996,17.998,15,20,100,20s94.004-2.002,100-20c5-17.002,15-20,70-20h64.004L5380,2908
			c-15.996,37.002-65.996,155.996-112.002,263.994c-45.996,109.004-85,198.008-87.998,198.008S5125,3255.002,5065,3113.996z
			 M5195,3063c32.998-79.004,32.998-82.998-19.004-82.998c-32.998,0-45.996,3.994-45.996,13.994c0,17.002,37.002,106.006,45,106.006
			C5177.001,3100.002,5187.001,3083,5195,3063z"/>
		<path fill="#80C358" d="M2620,3100.002v-260h60h60v53.994v52.998l65,6.006c47.002,2.998,76.001,12.002,103.999,30
			c123.003,82.002,101.997,315-31.997,365.996c-16.001,6.006-80,11.006-143.003,11.006H2620V3100.002z M2845,3225.002
			c27.998-27.002,32.998-80,13.999-118.008c-16.997-30.996-27.998-36.992-76.001-36.992H2740v90v90h40
			C2810,3250.002,2827.002,3243,2845,3225.002z"/>
		<path fill="#80C358" d="M3050,3100.002v-260h60h60v60c0,58.994,0.996,60,27.998,60c22.998,0,32.002-9.004,57.998-58.008
			l31.006-56.992l67.002-3.008l67.998-2.998l-39.004,71.006l-40,70.996l32.998,34.004c84.004,88.994,62.002,260-41.992,320.996
			c-37.002,22.002-52.002,24.004-162.002,24.004H3050V3100.002z M3274.004,3228.996c20.996-17.002,25.996-28.994,25.996-67.998
			c0-69.004-20-90.996-80.996-90.996H3170v90v90h39.004C3232.998,3250.002,3257.002,3241.994,3274.004,3228.996z"/>
		<path fill="#80C358" d="M4550,3100.002v-260h60h60v60.996c0,60,0,60,27.998,57.002c22.002-2.002,32.998-14.004,57.002-60
			l30-57.998h67.998h67.998L4894.003,2888c-15,25.996-33.008,57.002-41.006,70c-12.998,20.996-12.002,25,10,45.996
			c40,37.002,59.004,84.004,60,145c0,72.998-15.996,120-55.996,159.004c-46.006,45-75,52.002-202.998,52.002H4550V3100.002z
			 M4775,3225.002c19.004-18.008,25-35,25-70c0-61.006-24.004-85-85-85h-45v90v90h40C4740,3250.002,4757.001,3243,4775,3225.002z"/>
		<path fill="#80C358" d="M6610,3100.002v-260h170h170v55v55h-110h-110v30v30h85h85v55v55h-85h-85v65v65h105h105v55v55h-165h-165
			V3100.002z"/>
		<path fill="#80C358" d="M7010,3100.002v-260h60h60v60c0,56.992,0.996,60,24.003,60c20,0,30.996-12.002,57.998-60l32.998-60h67.002
			h67.002l-41.006,70.996l-40.996,70l30.996,32.002c40,42.002,52.002,75,52.002,145c-0.996,90.996-45,165-112.998,190.996
			c-16.006,6.006-80,11.006-142.998,11.006H7010V3100.002z M7234.999,3225.002c32.002-31.006,34.004-91.006,4.004-129.004
			c-17.002-20.996-29.004-25.996-65-25.996H7130v90v90h40C7199.999,3250.002,7217.001,3243,7234.999,3225.002z"/>
		<path fill="#80C358" d="M3995.996,2486.994c-55-127.998-100.996-235-102.998-238.994c-2.002-5,20-7.998,50-7.998
			c46.006,0,55,2.998,60,20c5,17.998,14.004,20,90,20c76.006,0,85-2.002,90-20c4.004-17.002,14.004-20,61.006-20H4300L4287.001,2273
			c-82.002,192.002-189.004,442.002-191.006,443.994C4095,2718,4050,2615.002,3995.996,2486.994z M4112.998,2433
			c9.004-27.002,17.002-51.006,17.002-55c0-5-17.998-7.998-40-7.998s-40,2.998-40,5.996c0,14.004,35,104.004,40,104.004
			C4092.998,2480.002,4104.003,2458.996,4112.998,2433z"/>
		<path fill="#80C358" d="M4340,2475.998v-235.996h55h55v50c0,46.992,2.002,50,25.996,50c97.002,0,177.002,60,189.004,143.994
			c14.004,87.998-14.004,161.006-75,199.004c-29.004,17.998-54.004,22.002-142.002,25.996L4340,2711.994V2475.998z
			 M4540.996,2583.996c23.008-20.996,25-80.996,3.008-112.002c-11.006-15.996-25-21.992-55-21.992H4450v80.996V2613l35.996-6.006
			C4505.996,2603.996,4530.996,2593,4540.996,2583.996z"/>
		<path fill="#80C358" d="M4720,2475.998v-235.996h55h55v48.994v47.998l57.002,7.002c30.996,4.004,70.996,16.006,88.994,27.002
			c70,42.998,95,162.998,52.002,249.004c-35,67.998-70.996,83.994-200,88.994L4720,2711.994V2475.998z M4914.003,2588.996
			c20-15.996,25.996-28.994,25.996-60.996c0-54.004-22.002-77.998-72.002-77.998H4830v80v80h29.004
			C4874.003,2610.002,4899.003,2600.998,4914.003,2588.996z"/>
		<path fill="#80C358" d="M5100,2475.998v-235.996h55h55v55c0,50.996,2.002,55,24.004,55c17.998,0,30-12.002,51.992-55l29.004-55
			h57.998h59.004L5395,2306.994c-35.996,66.006-35.996,67.002-17.002,82.002c57.998,46.006,71.006,182.002,24.004,249.004
			c-37.998,52.998-74.004,65.996-194.004,70L5100,2711.994V2475.998z M5305,2590.002c24.004-20,29.004-74.004,10.996-109.004
			c-15-27.998-20.996-30.996-60.996-30.996h-45v80.996V2613l40-6.006C5272.998,2603.996,5297.001,2595.998,5305,2590.002z"/>
		<path fill="#80C358" d="M5490,2475.002v-235h145h145v50v48.994l-92.002,2.998c-92.002,3.008-92.998,3.008-92.998,28.008
			c0,23.994,2.002,25,77.998,27.998l77.002,2.998v44.004v45h-80h-80.996l2.998,57.998l2.998,57.002l92.998,2.998l92.002,2.998
			v49.004v50h-145h-145V2475.002z"/>
		<path fill="#80C358" d="M5840,2475.998v-235.996h50h49.004l2.998,116.992l2.998,117.002l132.998-122.998L6210,2228.996v240
			v241.006h-50h-50v-115c0-63.008-2.998-115-5.996-115c-4.004,0-59.004,48.994-123.008,107.998
			c-63.994,60-121.992,112.002-127.998,115.996C5842.998,2710.002,5840,2660.998,5840,2475.998z"/>
		<path fill="#80C358" d="M6280,2475.002v-235h92.998c112.998,0,157.002,11.992,204.004,52.998
			c52.002,45,72.998,97.998,72.998,182.002c0,83.994-20.996,136.992-72.998,181.992c-47.002,41.006-91.006,53.008-204.004,53.008
			H6280V2475.002z M6475,2595.998c42.002-17.998,65-60.996,65-120.996c0-25-7.002-60-15.996-76.006
			c-16.006-32.002-66.006-58.994-109.004-58.994h-25v135v135h25C6429.003,2610.002,6455.996,2603.996,6475,2595.998z"/>
		<path fill="#80C358" d="M6700,2475.998v-235.996h55h55v55c0,50.996,2.002,55,22.998,55c17.002,0,30-13.008,52.002-55l30-55h57.998
			h59.004l-37.998,66.992c-32.002,57.002-35,68.008-22.002,77.002c60,44.004,77.002,166.006,35,240
			c-36.006,64.004-74.004,80-199.004,85L6700,2711.994V2475.998z M6882.998,2600.998C6915.996,2588,6935,2533.996,6920,2493.996
			c-14.004-35.996-25.996-43.994-72.002-43.994H6810v80c0,77.998,0.996,80,24.004,80
			C6847.998,2610.002,6870,2605.998,6882.998,2600.998z"/>
		<path fill="#80C358" d="M7080,2475.002v-235h150h150v50v50h-95h-95v30v30h75h75v45v45h-75h-75v60v60h90h90v50v50h-145h-145
			V2475.002z"/>
	</g>
	<g>
		<path fill="#DE371A" d="M3985,7890.001c-320.996-32.998-625-182.002-842.002-412.998c-142.002-150-256.997-392.001-310-652.001
			c-31.997-159.004-21.997-587.002,16.001-662.998c5-10,23.003-64.004,41.001-122.002
			c86.001-276.006,257.998-567.002,447.002-756.006c72.002-72.002,93.994-77.998,45-10.996
			c-270,358.994-409.004,690-442.002,1050.996c-22.998,242.002,22.002,513.008,120.996,732.002
			C3205,7378,3519.003,7610.001,3887.001,7665.001c247.998,37.998,500-2.998,738.994-120
			c124.004-60,341.006-221.006,453.008-334.004c121.992-125,253.994-303.994,372.998-505l27.998-47.002l59.004,68.008
			c78.994,90.996,115,123.994,185,167.998C5862.998,6983,6012.001,7023.996,6185,7023.996c102.002-0.996,132.002-5,200.996-26.992
			c188.008-62.002,342.002-209.004,439.004-420c47.002-103.008,65-177.002,72.002-297.002
			c18.994-362.002-156.006-701.006-560-1083.008c-77.998-73.994-155-146.992-172.002-160.996c-80.996-74.004,157.998,92.002,275,190
			C6555,5323,6720.996,5496.994,6792.998,5598c120,167.002,211.006,377.002,237.002,547.002
			c15.996,102.998,5.996,278.994-20.996,375.996c-46.006,165-142.002,329.004-263.008,449.004
			c-138.994,137.002-288.994,207.998-502.998,240c-205,30-473.994-37.001-668.994-166.005c-50-32.998-58.008-35.996-68.008-21.992
			c-5.996,8.994-38.994,56.992-73.994,105.996s-77.002,105-95,122.998c-17.998,19.004-50,56.006-72.002,84.004
			c-50,62.002-182.002,188.994-272.002,262.002c-73.994,58.994-283.994,167.998-402.998,208.994
			c-155,52.998-240.996,69.004-470,87.998C4090,7895.998,4029.003,7895.001,3985,7890.001z"/>
		<path fill="#DE371A" d="M3829.003,5223c5-16.006,11.992-57.002,15.996-90c12.002-107.998-24.004-152.998-220-272.002
			c-75-45-117.998-77.998-137.002-105.996c-38.994-55-52.998-138.008-42.998-250l7.998-90l12.002,80
			c15,96.992,45.996,171.992,87.998,212.998c17.998,17.002,75,53.994,127.002,82.002c109.004,58.994,170,113.994,205,183.994
			c42.998,87.002,27.002,192.998-40,256.006L3820.996,5253L3829.003,5223z"/>
		<path fill="#DE371A" d="M3577.998,5120.998c-23.994-22.002-32.002-37.002-32.002-62.998c0-72.998,56.006-117.002,129.004-101.006
			c54.004,11.006,72.998,45,57.002,101.006C3704.003,5151.994,3642.001,5178,3577.998,5120.998z"/>
		<path fill="#DE371A" d="M5772.001,5056.994c-102.002-107.998-37.998-258.994,155-360.996
			c97.002-52.002,128.994-95,153.994-202.998l17.002-77.998l1.006,100c0.996,125.996-19.004,173.994-91.006,220
			c-27.002,16.992-80,50-118.994,75c-39.004,25-79.004,58.994-90,75.996c-21.006,34.004-25,107.002-10,162.002
			C5800,5085.998,5800,5086.994,5772.001,5056.994z"/>
		<path fill="#DE371A" d="M5895.996,4980.998C5882.001,4965.002,5860,4908.996,5860,4888c0-21.006,42.998-47.998,75-47.998
			c72.002,0,114.004,90.996,65,140C5974.003,5005.998,5919.003,5005.998,5895.996,4980.998z"/>
		<path fill="#DE371A" d="M3735,4763c-69.004-36.006-124.004-114.004-139.004-196.006c-3.994-20.996-3.994-110,0-197.998l7.002-160
			l22.998,22.002c35,32.998,55,104.004,60,209.004c6.006,116.992,12.002,160,24.004,160c5,0,10.996-24.004,14.004-52.002
			c2.998-29.004,10-105,15.996-170c5.996-64.004,15-129.004,19.004-145l7.998-27.998l20.996,35c12.002,18.994,25,55,27.998,80
			c7.002,43.994-11.992,418.994-22.998,445.996C3785.996,4783.996,3772.001,4783,3735,4763z"/>
		<path fill="#DE371A" d="M5835.996,4668c-10.996-35-27.998-304.004-21.992-349.004c6.992-52.002,32.998-115.996,42.998-105.996
			c2.998,2.998,10.996,65.996,18.994,138.994c7.002,73.008,16.006,144.004,20,158.008c6.006,23.994,7.002,23.994,14.004,5
			c5-11.006,9.004-56.006,10-100c0.996-83.008,14.004-135,45.996-182.002l19.004-27.998l7.002,45c12.998,85,8.994,245-7.002,290.996
			c-19.004,52.002-55.996,94.004-107.998,120C5849.003,4675.998,5839.003,4678,5835.996,4668z"/>
		<path fill="#DE371A" d="M4659.003,4353l-46.006-4.004l-8.994-77.002l-9.004-76.992h-50c-49.004,0-49.004,0-67.002-45
			c-30.996-83.008-22.002-110,37.998-110c34.004,0,38.008-17.002,20-103.008c-37.998-185,0-287.998,121.006-322.998
			c62.998-17.998,110.996-13.994,182.998,17.002c45,19.004,50,20,77.998,5c71.006-37.002,176.006-10.996,244.004,60
			C5225,3761.994,5245,3818.996,5245,3935.002c0,83.994-4.004,108.994-24.004,152.998c-12.998,28.994-36.992,62.002-53.994,73.994
			C5130.996,4188,5055,4195.998,5005,4180.002c-47.002-16.006-110.996-72.002-135.996-122.002
			C4845,4010.002,4820,3908,4820,3851.994c0-55.996-35-91.992-90-91.992c-57.002,0-65,15.996-50.996,102.998
			c5.996,38.994,17.998,95,25,122.002l12.998,50l45.996-2.002c36.006-2.002,47.002,0.996,47.002,12.002
			c0,7.998,12.002,38.994,27.002,68.994c15,31.006,23.994,57.998,20,62.002c-4.004,4.004-29.004,9.004-56.006,12.002l-48.994,3.994
			l5.996,84.004l5,84.004l-28.994-2.002C4717.998,4356.994,4684.003,4355.002,4659.003,4353z M5097.001,4010.002
			c23.994-45-5-167.002-50-211.006c-59.004-60-94.004-22.998-76.006,77.998c14.004,74.004,31.006,115,60,142.002
			C5060,4045.998,5080,4043,5097.001,4010.002z"/>
		<path fill="#DE371A" d="M4225,3533.996c-622.998-5.996-1550-25-1585-32.998c-136.001-30,2317.998-50.996,3760-30.996
			c764.003,10,1012.001,17.998,965,31.992C7299.003,3520.002,5159.003,3541.994,4225,3533.996z"/>
		<path fill="#DE371A" d="M2607.002,2703c-4.004-2.998-7.002-36.006-7.002-72.002s-8.999-164.004-21.001-282.998
			c-11.997-119.004-18.999-224.004-15-232.998c3.999-12.002,17.002-15,53.003-13.008l47.998,3.008l7.002,88.994
			c3.999,49.004,10,91.006,11.997,92.998c2.002,3.008,13.003,0,23.999-5.996c31.001-17.002,93.003-12.998,132.002,7.002
			c18.999,10,50,40,67.002,65.996c27.998,40,33.999,45,38.999,30c11.997-33.994,54.995-83.994,83.999-98.994
			c37.002-19.004,92.998-19.004,129.004-1.006c30,16.006,90.996,80,90.996,96.006c0,5.996,5,10,10,10c5.996,0,10-7.002,10-15
			c0-29.004,30.996-76.006,62.998-95c34.004-21.006,111.006-27.002,137.002-10c9.004,5.996,17.002,5,20.996-2.002
			c5-7.998,21.006-9.004,54.004-2.002l47.002,9.004v205v205l-51.006,2.998c-36.992,2.002-50.996-1.006-50.996-10
			c-0.996-65-22.998-246.006-34.004-272.998c-17.998-41.006-52.998-55-73.994-29.004c-11.006,15-12.998,47.002-7.002,167.002
			l5.996,147.002h-50c-48.994,0-50.996-1.006-51.992-27.002c0-29.004-17.002-77.998-18.008-56.006
			c-1.992,27.002-72.998,92.002-106.992,99.004c-75,14.004-156.006-27.998-184.004-95.996c-7.002-16.006-15-30-18.999-30
			c-3.003,0-13.999,17.998-23.999,40c-10,21.992-32.002,48.994-49.004,60.996c-36.997,27.002-106.997,35.996-138.999,19.004
			c-16.997-10-23.999-10-26.997-1.006C2707.998,2710.998,2617.998,2715.002,2607.002,2703z M2831.001,2573
			c31.997-60,5-167.998-48.003-192.002c-30-14.004-58.999,12.998-68.999,64.004C2695,2545.998,2790,2650.002,2831.001,2573z
			 M3154.004,2578c22.998-32.002,20.996-115-4.004-155c-27.998-47.002-52.998-57.002-82.002-34.004
			c-20,17.002-22.998,27.998-22.998,82.998c0,50,5,70,22.998,96.006C3095.996,2605.998,3132.002,2610.002,3154.004,2578z"/>
		<path fill="#DE371A" d="M3614.003,2685.002c-7.002-18.008-1.006-421.006,6.992-429.004c3.008-2.998,27.002-2.998,55,0
			l49.004,5.996l-2.998,64.004c-4.004,77.998,13.994,200.996,33.994,232.002c20,30,42.002,37.998,65,23.994
			c14.004-8.994,28.008-6.992,65,8.008c45,20,46.006,20.996,32.002,42.998c-37.002,55.996-118.994,82.998-170.996,55.996
			c-16.006-8.994-22.002-8.994-25,0C3715.996,2705.998,3620.996,2703,3614.003,2685.002z"/>
	</g>
</g>
</svg>
