<?xml version="1.0" encoding="utf-8"?>
<!-- Generator: Adobe Illustrator 12.0.0, SVG Export Plug-In . SVG Version: 6.00 Build 51448)  -->
<!DOCTYPE svg PUBLIC "-//W3C//DTD SVG 1.1//EN" "http://www.w3.org/Graphics/SVG/1.1/DTD/svg11.dtd" [
	<!ENTITY ns_svg "http://www.w3.org/2000/svg">
	<!ENTITY ns_xlink "http://www.w3.org/1999/xlink">
]>
<svg  version="1.1" id="Layer_1" xmlns="&ns_svg;" xmlns:xlink="&ns_xlink;" width="665" height="119" viewBox="39 31 665 119"
	 overflow="visible" enable-background="new 39 31 665 119" xml:space="preserve">
<g transform="translate(0.000000,171.000000) scale(0.100000,-0.100000)" opacity="0.75">
	<path d="M1463.999,1281.001c-96.997-58.999-52.998-211.001,62.002-211.001c38.999,0,51.001,5,80,33.999
		c27.998,28.003,33.999,42.002,33.999,75C1640,1275,1545,1330,1463.999,1281.001z"/>
	<path d="M5570,1283.999c-35-7.998-67.998-17.998-72.998-22.998c-4.004-3.999-7.002-212.002-5-461.997
		c2.998-409.004,5-457.002,20-486.006C5550,245,5630,217.998,5730,239.004c77.998,16.992,80,20,60.996,96.992l-15,66.006
		L5740,395.996c-72.998-11.992-70-32.998-72.002,459.004c-2.998,382.002-5,440-17.998,441.001
		C5642.001,1297.002,5605.996,1292.002,5570,1283.999z"/>
	<path d="M6322.998,1282.998l-72.998-15v-153.999c0-85-4.004-153.999-9.004-153.999s-25,7.002-43.994,15
		c-50,21.001-142.998,18.999-192.002-3.999C5900,922.002,5850.996,827.002,5835.996,645c-17.998-212.998,51.006-369.004,180-405
		c73.008-20.996,184.004,5.996,223.008,54.004c20,23.994,37.998,18.994,43.994-11.006C6295,230,6302.001,227.002,6360.996,250
		c86.006,32.002,93.008,39.004,80,85.996c-6.992,25-10.996,202.002-10.996,487.002c-0.996,246.001-2.998,454.004-5.996,462.002
		C6417.001,1302.002,6417.001,1302.002,6322.998,1282.998z M6209.003,839.004L6240,827.998l-2.002-205L6235,417.002l-27.998-21.006
		c-41.006-30-107.002-28.994-141.006,3.008c-38.994,36.992-50,83.994-48.994,216.992c0,175,30.996,232.002,123.994,233.008
		C6160.996,850,6190.996,845,6209.003,839.004z"/>
	<path d="M3405.996,1243.999c-37.998-7.998-70.996-15-72.998-16.997c-5-5,185-937.998,197.002-964.004
		c9.004-20.996,15.996-22.998,84.004-22.998c46.992,0,76.992,5,83.994,12.998C3710.996,270,3837.998,800,3845.996,875
		c8.008,72.998,20,101.001,28.008,65c2.998-14.004,7.998-47.002,10.996-75c14.004-112.002,117.002-610,127.998-617.002
		c15-10,137.998-10,154.004,0c10,7.002,238.994,970,230.996,977.002c-10,10-155,32.002-162.002,25
		C4225,1238.999,4140,780.996,4115,597.998c-2.998-27.002-10-47.998-15-47.998s-10.996,20.996-15,47.998
		c-5.996,51.006-82.002,401.001-117.998,547.002L3945,1235l-69.004,2.998c-37.998,2.002-72.998-0.996-76.992-5
		c-10-10-132.002-532.998-149.004-640c-12.998-80-30-97.002-30-30c0,22.998-7.002,85-15,137.998
		c-17.002,113.008-94.004,524.004-102.002,545.005C3497.002,1262.002,3497.998,1262.002,3405.996,1243.999z"/>
	<path d="M516.001,1227.998c-3.003-6.997-12.002-185.996-20-397.998c-8.999-212.002-18.999-427.002-22.002-477.002L467.998,260h80
		h80l6.001,82.002c3.003,45.996,8.003,198.994,12.002,340.996c5,182.002,10,257.002,17.998,254.004
		c6.001-2.002,13.999-22.998,18.999-47.998c10-55,108.003-391.006,117.002-402.002c7.998-10,115-17.002,127.998-7.998
		c11.001,6.992,119.004,348.994,128.003,406.992c6.001,42.002,18.999,72.002,26.997,64.004c3.003-2.998,9.004-157.998,13.003-345
		L1105,265l83.999-2.998c46.001-2.002,87.002,0.996,91.001,5c7.002,7.998-25,847.998-36.001,930.996l-5,42.002H1145h-93.999
		l-90-272.002c-48.999-150-92.002-265.996-93.999-257.998C863.999,717.998,855,754.004,845,790c-8.999,35.996-45,150.996-78.999,255
		l-62.002,190l-91.997,2.998C542.998,1240,518.999,1237.002,516.001,1227.998z"/>
	<path d="M1912.998,976.001C1820,947.002,1745,865.996,1712.002,760.996c-26.001-85-23.003-267.998,5.996-340.996
		c30-75.996,73.003-124.004,140-157.002C1907.002,240,1927.002,235.996,2005,235c78.999,0,97.002,2.998,147.998,27.998
		C2183.999,279.004,2210,295,2210,300c0,15-42.998,120-48.999,120c-3.003,0-28.003-10.996-55-25
		c-86.001-44.004-158.999-25.996-198.003,47.002C1887.998,480,1885,499.004,1885,605c0,102.002,2.998,127.002,22.002,167.002
		c36.997,80,117.998,100.996,201.997,52.002c25-13.008,48.999-23.008,56.001-21.006c6.001,2.998,22.998,27.998,38.999,57.998
		l28.999,52.002l-28.999,24.004C2142.998,985,2003.999,1003.999,1912.998,976.001z"/>
	<path d="M2352.998,966.001c-72.998-30.005-75-33.999-55-86.001c14.004-37.998,17.002-92.998,20-332.002L2321.001,260h90H2500v255
		v255l42.998,30.996c38.003,28.008,47.002,30,93.003,25l51.001-5.996l25,70c22.998,65,23.999,71.001,7.998,85
		c-18.999,17.002-86.001,20-127.002,3.999c-15-5-46.997-28.999-70-51.001c-23.999-22.998-43.999-40-45.996-37.002
		c-3.003,2.002-14.004,25-25,52.002C2440,968.999,2425,990,2417.998,988.999C2411.001,988.999,2381.001,977.998,2352.998,966.001z"
		/>
	<path d="M2910,972.998c-26.001-8.999-66.001-37.998-96.001-67.002c-63.999-65-93.999-138.994-101.001-252.998
		c-12.998-190.996,54.004-337.998,180-393.994c73.003-33.008,192.002-33.008,257.002,0c130.996,66.992,187.998,190,177.998,387.998
		c-3.994,80-10,110.996-32.002,158.994C3265,874.004,3212.002,932.998,3155,962.998C3100.996,991.001,2972.998,996.001,2910,972.998
		z M3075.996,830.996C3122.998,802.002,3135,757.002,3135,605c0-180-24.004-227.998-117.002-227.998
		c-45.996,0-81.997,28.994-100,82.002c-20,57.998-16.997,255.996,5,313.994C2952.002,845.996,3012.998,869.004,3075.996,830.996z"/>
	<path d="M4557.998,980c-78.994-22.998-153.994-97.998-188.994-185.996c-20-51.006-23.008-77.002-23.008-184.004
		c0-105.996,3.008-134.004,22.002-180.996c30-76.006,81.006-132.002,150-166.006c77.002-37.998,192.998-40,262.002-3.994
		c122.002,62.998,180,175,180,350.996c0,185-70,312.002-197.002,360C4707.001,991.001,4610,996.001,4557.998,980z M4695,837.998
		c42.998-18.994,65.996-77.998,72.002-182.998c10.996-185-29.004-280.996-117.998-279.004c-48.008,2.002-82.002,30-101.006,83.008
		c-20,57.998-17.002,255.996,5,313.994C4580,840.996,4634.003,865.996,4695,837.998z"/>
	<path d="M5047.998,962.998C4984.003,935,4982.001,930.996,5005,855.996c12.002-37.998,15-108.994,15-322.998V260h90h90v249.004
		v248.994l35,31.006c40,35,64.004,42.998,117.998,38.994l39.004-2.998l25,69.004c15,41.992,20.996,71.997,15,77.998
		c-14.004,13.999-77.002,20.996-117.998,13.999c-23.008-5-53.008-23.003-84.004-51.997C5204.003,910,5180.996,890,5177.998,890
		s-8.994,12.002-12.998,27.998c-9.004,36.006-32.998,72.002-47.998,71.001C5110.996,988.999,5079.003,977.002,5047.998,962.998z"/>
	<path d="M6700,981.001c-42.998-13.999-84.004-38.003-107.002-63.003C6559.003,882.002,6530,810,6530,760
		c0-99.004,62.002-169.004,185-210c95-32.002,129.004-57.998,132.998-102.002c2.998-28.994-2.002-40-25-57.998
		c-35.996-27.998-100.996-22.998-197.998,15c-77.998,30.996-80,30-105-45.996c-12.998-40-12.998-42.002,9.004-60
		C6600.996,240,6817.001,215.996,6895,257.002c80.996,42.998,125,113.994,125,202.002C7020,575,6959.003,635.996,6782.001,700
		c-92.002,32.998-115,77.002-67.002,125c30,30.996,97.998,34.004,187.002,9.004c32.002-9.004,60-15,60.996-13.008
		c1.006,2.002,12.998,26.006,25,53.008C7015,930.996,7010,940.996,6942.001,965C6889.003,983.999,6737.998,993.999,6700,981.001z"/>
	<path d="M1310,905.996v-65l62.998-2.998L1435,835l2.998-287.002L1440,260h90h90l-2.002,352.998L1615,965l-152.002,2.998
		L1310,971.001V905.996z"/>
</g>
<g transform="translate(0.000000,171.000000) scale(0.100000,-0.100000)">
	<path fill="#FFFFFF" d="M1403.999,1361.001c-96.997-58.999-52.998-211.001,62.002-211.001c38.999,0,51.001,5,80,33.999
		c27.998,28.003,33.999,42.002,33.999,75C1580,1355,1485,1410,1403.999,1361.001z"/>
	<path fill="#FFFFFF" d="M5510,1363.999c-35-7.998-67.998-17.998-72.998-22.998c-4.004-3.999-7.002-212.002-5-462.002
		c2.998-408.999,5-456.997,20-486.001C5490,325,5570,297.998,5670,319.004c77.998,16.992,80,20,60.996,96.992l-15,66.006
		L5680,475.996c-72.998-11.992-70-32.998-72.002,459.004c-2.998,382.002-5,440-17.998,441.001
		C5582.001,1377.002,5545.996,1372.002,5510,1363.999z"/>
	<path fill="#FFFFFF" d="M6262.998,1362.998l-72.998-15v-153.999c0-85-4.004-153.999-9.004-153.999s-25,7.002-43.994,15
		c-50,21.001-142.998,18.999-192.002-3.999c-105-48.999-154.004-143.999-169.004-326.001c-17.998-212.998,51.006-369.004,180-405
		c73.008-20.996,184.004,5.996,223.008,54.004c20,23.994,37.998,18.994,43.994-11.006C6235,310,6242.001,307.002,6300.996,330
		c86.006,32.002,93.008,39.004,80,85.996c-6.992,25-10.996,202.002-10.996,487.002c-0.996,246.001-2.998,454.004-5.996,462.002
		C6357.001,1382.002,6357.001,1382.002,6262.998,1362.998z M6149.003,918.999L6180,907.998l-2.002-205L6175,497.002l-27.998-21.006
		c-41.006-30-107.002-28.994-141.006,3.008c-38.994,36.992-50,83.994-48.994,216.992c0,175.005,30.996,232.002,123.994,233.003
		C6100.996,930,6130.996,925,6149.003,918.999z"/>
	<path fill="#FFFFFF" d="M3345.996,1323.999c-37.998-7.998-70.996-15-72.998-16.997c-5-5,185-937.998,197.002-964.004
		c9.004-20.996,15.996-22.998,84.004-22.998c46.992,0,76.992,5,83.994,12.998C3650.996,350,3777.998,880,3785.996,955
		c8.008,72.998,20,101.001,28.008,65c2.998-13.999,7.998-47.002,10.996-75c14.004-112.002,117.002-610,127.998-617.002
		c15-10,137.998-10,154.004,0c10,7.002,238.994,970,230.996,977.002c-10,10-155,32.002-162.002,25
		C4165,1318.999,4080,861.001,4055,677.998c-2.998-27.002-10-47.998-15-47.998s-10.996,20.996-15,47.998
		c-5.996,51.006-82.002,401.001-117.998,547.002L3885,1315l-69.004,2.998c-37.998,2.002-72.998-0.996-76.992-5
		c-10-10-132.002-532.998-149.004-640c-12.998-80-30-97.002-30-30c0,22.998-7.002,85-15,137.998
		c-17.002,113.003-94.004,524.004-102.002,545.005C3437.001,1342.002,3437.998,1342.002,3345.996,1323.999z"/>
	<path fill="#FFFFFF" d="M456.001,1307.998c-3.003-6.997-12.002-185.996-20-397.998c-8.999-212.002-18.999-427.002-22.002-477.002
		L407.998,340h80h80l6.001,82.002c3.003,45.996,8.003,198.994,12.002,340.996c5,182.002,10,257.002,17.998,254.004
		c6.001-2.002,13.999-23.003,18.999-48.003c10-55,108.003-391.001,117.002-401.997c7.998-10,115-17.002,127.998-7.998
		c11.001,6.992,119.004,348.994,128.003,406.997c6.001,41.997,18.999,71.997,26.997,63.999c3.003-2.998,9.004-157.998,13.003-345
		L1045,345l83.999-2.998c46.001-2.002,87.002,0.996,91.001,5c7.002,7.998-25,847.998-36.001,930.996l-5,42.002H1085h-93.999
		l-90-272.002c-48.999-150-92.002-265.996-93.999-257.998C803.999,797.998,795,834.004,785,870c-8.999,36.001-45,151.001-78.999,255
		l-62.002,190l-91.997,2.998C482.998,1320,458.999,1317.002,456.001,1307.998z"/>
	<path fill="#FFFFFF" d="M1852.998,1056.001c-92.998-28.999-167.998-110-200.996-215.005c-26.001-85-23.003-267.998,5.996-340.996
		c30-75.996,73.003-124.004,140-157.002C1847.002,320,1867.002,315.996,1945,315c78.999,0,97.002,2.998,147.998,27.998
		C2123.999,359.004,2150,375,2150,380c0,15-42.998,120-48.999,120c-3.003,0-28.003-10.996-55-25
		c-86.001-44.004-158.999-25.996-198.003,47.002C1827.998,560,1825,579.004,1825,685c0,102.002,2.998,127.002,22.002,167.002
		c36.997,80,117.998,100.996,201.997,51.997c25-12.998,48.999-22.998,56.001-21.001c6.001,3.003,22.998,28.003,38.999,58.003
		l28.999,51.997l-28.999,24.004C2082.998,1065,1943.999,1083.999,1852.998,1056.001z"/>
	<path fill="#FFFFFF" d="M2292.998,1046.001c-72.998-30-75-33.999-55-86.001c14.004-37.998,17.002-92.998,20-332.002L2261.001,340
		h90H2440v255v255l42.998,31.001c38.003,27.998,47.002,30,93.003,25l51.001-6.001l25,70c22.998,65,23.999,71.001,7.998,85
		c-18.999,17.002-86.001,20-127.002,3.999c-15-5-46.997-28.999-70-51.001c-23.999-22.998-43.999-40-45.996-36.997
		c-3.003,1.997-14.004,25-25,51.997C2380,1048.999,2365,1070,2357.998,1068.999
		C2351.001,1068.999,2321.001,1057.998,2292.998,1046.001z"/>
	<path fill="#FFFFFF" d="M2850,1052.998c-26.001-8.999-66.001-37.998-96.001-66.997c-63.999-65-93.999-138.999-101.001-253.003
		c-12.998-190.996,54.004-337.998,180-393.994c73.003-33.008,192.002-33.008,257.002,0c130.996,66.992,187.998,190,177.998,387.998
		c-3.994,80-10,110.996-32.002,158.999C3205,953.999,3152.002,1012.998,3095,1042.998
		C3040.996,1071.001,2912.998,1076.001,2850,1052.998z M3015.996,911.001C3062.998,882.002,3075,837.002,3075,685
		c0-180-24.004-227.998-117.002-227.998c-45.996,0-81.997,28.994-100,82.002c-20,57.998-16.997,255.996,5,313.994
		C2892.002,926.001,2952.998,948.999,3015.996,911.001z"/>
	<path fill="#FFFFFF" d="M4497.998,1060c-78.994-22.998-153.994-97.998-188.994-186.001c-20-51.001-23.008-76.997-23.008-183.999
		c0-105.996,3.008-134.004,22.002-180.996c30-76.006,81.006-132.002,150-166.006c77.002-37.998,192.998-40,262.002-3.994
		c122.002,62.998,180,175,180,350.996c0,185-70,312.002-197.002,360C4647.001,1071.001,4550,1076.001,4497.998,1060z M4635,917.998
		c42.998-18.999,65.996-77.998,72.002-182.998c10.996-185-29.004-280.996-117.998-279.004c-48.008,2.002-82.002,30-101.006,83.008
		c-20,57.998-17.002,255.996,5,313.994C4520,921.001,4574.003,946.001,4635,917.998z"/>
	<path fill="#FFFFFF" d="M4987.998,1042.998c-63.994-27.998-65.996-31.997-42.998-106.997c12.002-38.003,15-108.999,15-323.003V340
		h90h90v249.004v248.994l35,31.001c40,35,64.004,43.003,117.998,38.999l39.004-2.998l25,68.999c15,42.002,20.996,72.002,15,78.003
		c-14.004,13.999-77.002,20.996-117.998,13.999c-23.008-5-53.008-23.003-84.004-52.002C5144.003,990,5120.996,970,5117.998,970
		s-8.994,12.002-12.998,27.998c-9.004,36.001-32.998,72.002-47.998,71.001C5050.996,1068.999,5019.003,1057.002,4987.998,1042.998z"
		/>
	<path fill="#FFFFFF" d="M6640,1061.001c-42.998-13.999-84.004-38.003-107.002-63.003C6499.003,962.002,6470,890,6470,840
		c0-99.004,62.002-169.004,185-210c95-32.002,129.004-57.998,132.998-102.002c2.998-28.994-2.002-40-25-57.998
		c-35.996-27.998-100.996-22.998-197.998,15c-77.998,30.996-80,30-105-45.996c-12.998-40-12.998-42.002,9.004-60
		C6540.996,320,6757.001,295.996,6835,337.002c80.996,42.998,125,113.994,125,202.002C6960,655,6899.003,715.996,6722.001,780
		c-92.002,32.998-115,77.002-67.002,125c30,31.001,97.998,33.999,187.002,8.999c32.002-8.999,60-15,60.996-12.998
		c1.006,1.997,12.998,26.001,25,52.998c27.002,57.002,22.002,67.002-45.996,91.001
		C6829.003,1063.999,6677.998,1073.999,6640,1061.001z"/>
	<path fill="#FFFFFF" d="M1250,986.001v-65l62.998-3.003L1375,915l2.998-287.002L1380,340h90h90l-2.002,352.998L1555,1045
		l-152.002,2.998L1250,1051.001V986.001z"/>
</g>
</svg>
