<?xml version="1.0" encoding="utf-8"?>
<!-- Generator: Adobe Illustrator 12.0.0, SVG Export Plug-In . SVG Version: 6.00 Build 51448)  -->
<!DOCTYPE svg PUBLIC "-//W3C//DTD SVG 1.1//EN" "http://www.w3.org/Graphics/SVG/1.1/DTD/svg11.dtd" [
	<!ENTITY ns_svg "http://www.w3.org/2000/svg">
	<!ENTITY ns_xlink "http://www.w3.org/1999/xlink">
]>
<svg  version="1.1" id="Layer_1" xmlns="&ns_svg;" xmlns:xlink="&ns_xlink;" width="387.715" height="446.104"
	 viewBox="1613.655 1716.943 387.715 446.104" overflow="visible" enable-background="new 1613.655 1716.943 387.715 446.104"
	 xml:space="preserve">
<g transform="translate(0.000000,4000.000000) scale(0.100000,-0.100000)">
	<path fill="#DE371A" d="M17897.947,22444.16c-92.691-180.775-171.002-332.445-173.965-336.947
		c-6.588-9.996-21.084-24.492-29.547-29.541c-14.6-8.682-28.002-12.197-47.002-12.197c-23.613,0-47.006,6.592-76.221,21.527
		c-9.662,4.834-71.387,38.111-137.279,73.805c-65.791,35.693-119.713,64.799-119.824,64.688
		c-0.221-0.107,36.459-204.385,81.381-453.805c45.029-249.525,86.656-481.045,92.695-514.541
		c6.041-33.496,11.533-65.678,12.188-71.387c1.758-15.156,1.539-42.939-0.547-55.678c-6.592-40.973-29.213-64.033-62.602-64.033
		c-25.264,0-55.244,15.156-76.773,38.77c-4.502,4.941-104.004,121.143-220.967,258.203
		c-176.055,206.146-212.959,248.867-213.725,247.109c-0.439-1.1-15.924-57.438-34.375-125.094
		c-18.453-67.65-34.814-126.738-36.354-131.244c-7.25-20.865-24.818-39.424-45.137-47.77c-14.277-5.82-35.033-7.686-49.75-4.506
		c-17.686,3.842-52.939,11.533-117.52,25.814c-307.842,67.76-415.474,91.26-415.913,90.82
		c-0.327-0.215,32.837-127.393,73.584-282.582c87.421-332.334,84.458-320.693,88.521-340.24
		c9.447-44.926,6.699-67.549-10.435-86.107c-7.798-8.457-18.447-15.596-32.612-21.748c-15.601-6.807-199.561-97.193-199.561-98.076
		c0-0.328,208.892-178.135,464.125-394.938c255.352-216.797,467.1-397.354,470.615-401.201
		c15.484-16.904,26.686-39.648,31.295-63.477c2.422-12.295,2.422-35.146,0.111-46.455c-0.986-4.502-19.766-70.293-41.953-146.064
		c-22.074-75.781-39.975-138.389-39.867-139.043c0.219-0.771,27.455,2.08,80.502,8.564c44.15,5.273,166.719,20.098,272.373,32.725
		c105.762,12.734,206.035,24.824,222.945,26.904c169.795,20.654,335.521,40.42,342.773,40.859
		c28.994,1.865,66.445-21.855,74.023-46.67l2.197-7.363l-20.869-503.555c-11.422-276.875-20.869-506.416-20.869-509.814v-6.377
		h76.879h76.881v5.83c0,3.291-5.488,232.168-12.08,508.818c-11.094,461.719-11.969,503.34-10.436,509.385
		c2.529,9.766,6.813,16.807,15.924,25.918c13.51,13.389,32.074,22.734,47.783,23.721c5.707,0.439,44.916-3.945,153.76-17.031
		c630.068-76.211,770.977-93.018,771.299-91.807c0.117,0.654-17.783,63.154-39.854,138.936
		c-22.188,75.771-40.967,141.338-41.963,145.518c-2.305,10.762-2.305,34.707,0.107,47.002c4.619,23.828,16.152,47.227,31.201,63.477
		c3.291,3.623,215.039,184.072,470.391,400.982c255.459,216.908,464.453,394.717,464.453,395.156
		c0,0.99-182.646,90.83-198.682,97.855c-40.85,17.574-54.258,41.734-47.871,86.104c3.506,24.713-2.422,1.758,92.354,362.213
		c40.85,155.189,74.023,282.256,73.701,282.582c-0.225,0.221-120.703-26.025-267.764-58.428
		c-286.436-63.037-279.736-61.723-296.641-58.754c-17.139,2.963-30.967,9.775-43.164,21.195
		c-7.803,7.139-15.811,18.453-19.219,26.904c-1.201,2.861-17.793,62.383-36.787,132.125
		c-19.004,69.74-35.039,127.836-35.479,128.936c-0.771,1.758-37.783-41.182-213.721-247.109
		c-116.973-137.061-216.475-253.262-220.977-258.203c-16.143-17.682-39.102-31.852-59.189-36.68
		c-7.91-1.871-12.09-2.197-20.869-1.758c-12.744,0.551-20,2.963-30.313,9.77c-27.461,18.346-37.559,66.338-26.797,128.502
		c1.426,8.564,43.379,241.84,93.242,518.164c49.756,276.322,90.498,502.568,90.381,502.676
		c-0.215,0.111-56.885-30.527-125.967-67.984c-69.199-37.451-131.133-70.727-137.832-73.906
		c-15.049-7.363-31.523-13.076-46.016-16.039c-14.947-3.076-38.994-2.525-50.635,1.205c-21.748,6.92-39.977,22.076-53.053,43.932
		c-2.299,3.955-79.506,154.092-171.65,333.549c-92.035,179.566-167.598,326.514-167.93,326.514
		S17990.643,22624.83,17897.947,22444.16z"/>
</g>
</svg>
