<?xml version="1.0" encoding="UTF-8" standalone="no"?>
<svg
   xmlns:dc="http://purl.org/dc/elements/1.1/"
   xmlns:cc="http://creativecommons.org/ns#"
   xmlns:rdf="http://www.w3.org/1999/02/22-rdf-syntax-ns#"
   xmlns:svg="http://www.w3.org/2000/svg"
   xmlns="http://www.w3.org/2000/svg"
   viewBox="0 0 246.22667 142.74667"
   height="142.74667"
   width="246.22667"
   xml:space="preserve"
   id="svg2"
   version="1.1"><metadata
     id="metadata8"><rdf:RDF><cc:Work
         rdf:about=""><dc:format>image/svg+xml</dc:format><dc:type
           rdf:resource="http://purl.org/dc/dcmitype/StillImage" /></cc:Work></rdf:RDF></metadata><defs
     id="defs6"><clipPath
       id="clipPath20"
       clipPathUnits="userSpaceOnUse"><path
         id="path18"
         d="M 0,1070.58 V 0 h 1846.66 v 1070.58 z" /></clipPath></defs><g
     transform="matrix(1.3333333,0,0,-1.3333333,0,142.74667)"
     id="g10"><g
       transform="scale(0.1)"
       id="g12"><g
         id="g14"><g
           clip-path="url(#clipPath20)"
           id="g16"><path
             id="path22"
             style="fill:#62952d;fill-opacity:1;fill-rule:nonzero;stroke:none"
             d="m 1658.61,240.887 c 0,-26.895 0,-40.625 -40.45,-40.625 -22.33,0 -40.43,13.73 -40.43,40.625 0,26.886 3,62.492 25.35,62.492 22.32,0 55.53,-31.406 55.53,-62.492" /><path
             id="path24"
             style="fill:#a3d666;fill-opacity:1;fill-rule:nonzero;stroke:none"
             d="m 1622.25,296.504 c -4.32,0 -7.74,-1.984 -10.49,-5.266 15.7,-10.203 31.4,-33.797 31.4,-57.226 0,-21.785 -0.01,-34.93 -17.92,-39.129 3.06,-0.899 6.22,-1.496 9.57,-1.496 33.69,0 33.69,13.73 33.69,40.625 0,31.086 -27.66,62.492 -46.25,62.492" /><path
             id="path26"
             style="fill:#9cd05b;fill-opacity:1;fill-rule:nonzero;stroke:none"
             d="m 727.566,233.797 c 0,-26.922 -10.679,-49.102 -34.91,-49.102 -55.566,0 -50.539,26.262 -43.867,52.344 9.207,36.047 28.953,49.035 53.184,49.035 24.226,0 25.593,-25.351 25.593,-52.277" /><path
             id="path28"
             style="fill:#62952d;fill-opacity:1;fill-rule:nonzero;stroke:none"
             d="m 685.305,284.902 c 0,-73.175 -30.117,-112.121 86.133,-122.304 63.96,-5.606 146.367,49.129 146.367,122.304 0,73.172 -52.043,132.5 -116.25,132.5 -64.211,0 -116.25,-59.328 -116.25,-132.5" /><path
             id="path30"
             style="fill:#22441f;fill-opacity:1;fill-rule:nonzero;stroke:none"
             d="m 1703.49,541.746 c 7.42,-36.726 -1.3,-68.074 -1.41,-97.41 -0.63,-178.789 -244.88,-226.934 -475.2,-226.934 -266.345,0 -561.458,55 -487.857,324.344 42.317,154.828 215.911,290.656 482.237,290.656 266.32,0 450.44,-133.316 482.23,-290.656" /><path
             id="path32"
             style="fill:none;stroke:#74c22d;stroke-width:10;stroke-linecap:butt;stroke-linejoin:miter;stroke-miterlimit:10;stroke-dasharray:none;stroke-opacity:1"
             d="m 1615.3,190 c 0,-15.137 -11.19,-27.402 -25,-27.402 -13.81,0 -25,12.265 -25,27.402 0,15.137 11.19,27.402 25,27.402 13.81,0 25,-12.265 25,-27.402 z" /><path
             id="path34"
             style="fill:none;stroke:#74c22d;stroke-width:10;stroke-linecap:butt;stroke-linejoin:miter;stroke-miterlimit:10;stroke-dasharray:none;stroke-opacity:1"
             d="m 1537.8,216.191 c 0,-14.464 -11.16,-26.191 -24.93,-26.191 -13.77,0 -24.93,11.727 -24.93,26.191 0,14.473 11.16,26.2 24.93,26.2 13.77,0 24.93,-11.727 24.93,-26.2 z" /><path
             id="path36"
             style="fill:none;stroke:#74c22d;stroke-width:10;stroke-linecap:butt;stroke-linejoin:miter;stroke-miterlimit:10;stroke-dasharray:none;stroke-opacity:1"
             d="m 1581.75,244.578 c 0,-9.461 -4.52,-17.129 -10.1,-17.129 -5.58,0 -10.1,7.668 -10.1,17.129 0,9.465 4.52,17.129 10.1,17.129 5.58,0 10.1,-7.664 10.1,-17.129 z" /><path
             id="path38"
             style="fill:#61942d;fill-opacity:1;fill-rule:nonzero;stroke:none"
             d="m 835.293,201.719 c 0,-12.434 -10.105,-22.52 -22.578,-22.52 -12.481,0 -22.586,10.086 -22.586,22.52 0,12.441 10.105,22.527 22.586,22.527 12.473,0 22.578,-10.086 22.578,-22.527" /><path
             id="path40"
             style="fill:#62932d;fill-opacity:1;fill-rule:nonzero;stroke:none"
             d="m 880.605,222.715 c 0,-4.856 -3.957,-8.789 -8.835,-8.789 -4.875,0 -8.832,3.933 -8.832,8.789 0,4.844 3.957,8.777 8.832,8.777 4.878,0 8.835,-3.933 8.835,-8.777" /><path
             id="path42"
             style="fill:#75c130;fill-opacity:1;fill-rule:nonzero;stroke:none"
             d="m 1355.55,165.371 c 0,-89.0351 113.31,-161.10928 189.88,-160.85928 125.7,0.41016 118.15,25.34768 107.37,125.11728 -10,92.519 -83.32,182.527 -158.62,196.914 -163.75,31.309 -138.63,-72.168 -138.63,-161.172" /><path
             id="path44"
             style="fill:#75c130;fill-opacity:1;fill-rule:nonzero;stroke:none"
             d="M 1005.19,159.688 C 1005.19,74.0234 891.875,4.89844 815.305,4.89844 c -76.567,0 -87.375,69.12496 -87.375,154.78956 0,85.652 63.32,141.25 138.625,155.097 163.745,30.117 138.635,-69.445 138.635,-155.097" /><path
             id="path46"
             style="fill:#9cd05b;fill-opacity:1;fill-rule:nonzero;stroke:none"
             d="m 806.348,54 c 0,-26.9219 -10.684,-49.10156 -34.91,-49.10156 -55.571,0 -50.54,26.26176 -43.872,52.35156 9.211,36.0313 28.957,49.02 53.188,49.02 24.226,0 25.594,-25.3442 25.594,-52.27" /><path
             id="path48"
             style="fill:#9cd05b;fill-opacity:1;fill-rule:nonzero;stroke:none"
             d="m 737.488,78.6523 c 0,-25.5507 -16.765,-45.082 -37.359,-46.2539 -45.09,-2.5586 -42.578,21.0625 -37.91,46.1563 5.293,28.4373 32.261,46.3473 52.91,46.3473 20.625,0 22.359,-20.703 22.359,-46.2497" /><path
             id="path50"
             style="fill:#61942d;fill-opacity:1;fill-rule:nonzero;stroke:none"
             d="m 835.293,201.719 c 0,-12.434 -10.105,-22.52 -22.578,-22.52 -12.481,0 -22.586,10.086 -22.586,22.52 0,12.441 10.105,22.527 22.586,22.527 12.473,0 22.578,-10.086 22.578,-22.527" /><path
             id="path52"
             style="fill:#62932d;fill-opacity:1;fill-rule:nonzero;stroke:none"
             d="m 880.605,222.715 c 0,-4.856 -3.957,-8.789 -8.835,-8.789 -4.875,0 -8.832,3.933 -8.832,8.789 0,4.844 3.957,8.777 8.832,8.777 4.878,0 8.835,-3.933 8.835,-8.777" /><path
             id="path54"
             style="fill:#61942d;fill-opacity:1;fill-rule:nonzero;stroke:none"
             d="m 1618.17,193.387 c 0,-14.461 -11.16,-26.199 -24.93,-26.199 -13.77,0 -24.93,11.738 -24.93,26.199 0,14.465 11.16,26.203 24.93,26.203 13.77,0 24.93,-11.738 24.93,-26.203" /><path
             id="path56"
             style="fill:#61942d;fill-opacity:1;fill-rule:nonzero;stroke:none"
             d="m 1532.52,225.957 c 0,-8.711 -6.92,-15.762 -15.47,-15.762 -8.53,0 -15.46,7.051 -15.46,15.762 0,8.711 6.93,15.77 15.46,15.77 8.55,0 15.47,-7.059 15.47,-15.77" /><path
             id="path58"
             style="fill:#9ed160;fill-opacity:1;fill-rule:nonzero;stroke:none"
             d="m 1702.17,80.6445 c 5.24,-26.3828 11.81,-48.6953 -32,-44.6328 -18.53,1.7071 -35.36,17.7383 -35.36,44.6328 0,26.8755 6.74,48.6795 25.35,48.6795 18.59,0 36.9,-22.996 42.01,-48.6795" /><path
             id="path60"
             style="fill:#9ed160;fill-opacity:1;fill-rule:nonzero;stroke:none"
             d="m 1659.69,48.3008 c 0,-30.6992 8.81,-46.37111 -50.01,-46.37111 -23.31,0 -42.21,24.89061 -42.21,55.58981 0,30.6914 18.9,55.5855 42.21,55.5855 23.29,0 50.01,-34.1128 50.01,-64.8042" /><path
             id="path62"
             style="fill:#62952d;fill-opacity:1;fill-rule:nonzero;stroke:none"
             d="m 1571.65,285.215 c -8.28,6.258 -53.47,37.098 -77.47,41.512 -163.75,30.117 -138.63,-69.442 -138.63,-155.098 0,-12.402 0.34,-25.867 4.63,-37.43 33.01,81.895 119.16,136.211 211.47,151.016" /><path
             id="path64"
             style="fill:#62952d;fill-opacity:1;fill-rule:nonzero;stroke:none"
             d="m 795.898,285.82 c 21.778,17.227 45.735,29.305 69.915,33.797 164.927,30.656 139.637,-70.683 139.637,-157.859 0,-12.637 -2.46,-24.883 -6.778,-36.641 C 965.41,208.465 888.887,270.75 795.898,285.82" /><path
             id="path66"
             style="fill:#73c32f;fill-opacity:1;fill-rule:nonzero;stroke:none"
             d="m 1705.3,562.684 c 53.71,-246.356 -197.03,-300.977 -477.5,-300.977 -266.823,0 -562.495,51.047 -488.757,300.977 42.395,143.675 216.309,269.718 483.137,269.718 266.81,0 451.29,-123.711 483.12,-269.718" /><path
             id="path68"
             style="fill:#b5e17a;fill-opacity:1;fill-rule:nonzero;stroke:none"
             d="m 744.98,57.25 c 7.852,30.7383 23.418,44.605 42.852,48.051 -2.18,0.605 -4.578,0.969 -7.305,0.969 -24.226,0 -43.972,-12.9887 -53.183,-49.02 -6.668,-26.0898 -11.699,-52.35156 43.867,-52.35156 1.809,0 3.398,0.36328 5.059,0.61328 C 734.277,9.35938 738.867,33.3516 744.98,57.25" /><path
             id="path70"
             style="fill:#b5e17a;fill-opacity:1;fill-rule:nonzero;stroke:none"
             d="m 681.172,78.5547 c 4.414,23.7113 23.879,39.9223 42.195,44.7263 -2.371,0.957 -5,1.621 -8.23,1.621 -20.645,0 -47.617,-17.91 -52.91,-46.3473 -4.668,-25.0938 -7.176,-48.7149 37.91,-46.1563 0.926,0.0625 1.797,0.3321 2.695,0.461 -27.996,3.7109 -25.676,24.1289 -21.66,45.6953" /><path
             id="path72"
             style="fill:#b5e17a;fill-opacity:1;fill-rule:nonzero;stroke:none"
             d="m 1706.89,80.6055 c -5.1,25.6915 -23.41,48.6915 -42.01,48.6915 -2.4,0 -4.59,-0.391 -6.61,-1.086 15.99,-4.813 30.51,-25.176 34.97,-47.5977 4.49,-22.6016 9.87,-42.1524 -16.24,-44.7539 41.37,-3.1094 35.05,18.832 29.89,44.7461" /><path
             id="path74"
             style="fill:#b5e17a;fill-opacity:1;fill-rule:nonzero;stroke:none"
             d="m 1664.02,46.3711 c 0,30.6992 -26.72,64.8009 -50.01,64.8009 -3.04,0 -6,-0.449 -8.86,-1.25 21.07,-6.27 42.23,-36.2306 42.23,-63.5509 0,-28.3594 7.4,-43.85157 -37.78,-46.062506 C 1611.05,0.109375 1612.52,0 1614.01,0 c 58.82,0 50.01,15.6602 50.01,46.3711" /><path
             id="path76"
             style="fill:#75c130;fill-opacity:1;fill-rule:nonzero;stroke:none"
             d="m 687.656,615.719 c 25.891,-24.5 55.989,-59.797 92.129,-67.992 23.211,-5.258 47.188,-7.176 70.801,-13.258 70.781,-18.239 148.762,-26.18 221.334,-34.781 157.1,-18.614 314.37,-34.915 471.61,-52.266 34.69,-3.828 69.64,-5.949 104.27,-10.02 0.13,-0.019 127.53,-14.992 182.5,0 55,15 -40,-65 -117.5,-70 -77.5,-5 -32.5,0 -32.5,0 0,0 -37.5,-100.07 -332.5,-110.07 -243.06,-8.23 -306.25,2.453 -481.245,57.453 -155.371,48.828 -276.34,190.117 -276.34,190.117 l -30.801,35 c 41.758,24.688 86.777,49.094 128.242,75.817" /><path
             id="path78"
             style="fill:#62952d;fill-opacity:1;fill-rule:nonzero;stroke:none"
             d="m 865.293,717.832 h 68.918 V 615.957 l -89.106,-73.41 c 0,0 -96.128,8.723 -96.25,8.742 -1.89,0.324 21.672,56.512 23.086,58.695 15.149,23.356 30.879,50.813 49.204,67.575 9.468,8.668 38.296,40.273 44.148,40.273" /><path
             id="path80"
             style="fill:#62952d;fill-opacity:1;fill-rule:nonzero;stroke:none"
             d="m 857.617,522.539 102.5,75 125.003,-37.5 v -90 l -87.503,-57.5 -116.035,27.5 -23.965,82.5" /><path
             id="path82"
             style="fill:#62952d;fill-opacity:1;fill-rule:nonzero;stroke:none"
             d="m 1372.62,781.699 110,-63.867 v -87.644 l -130,-32.649 -115,52.5 v 87.5 l 135,44.16" /><path
             id="path84"
             style="fill:#62952d;fill-opacity:1;fill-rule:nonzero;stroke:none"
             d="m 1360.12,565.039 v -97.5 l 87.5,-55 112.5,25 21.34,80 -98.84,80 -122.5,-32.5" /><path
             id="path86"
             style="fill:#62952d;fill-opacity:1;fill-rule:nonzero;stroke:none"
             d="m 1517.62,717.832 h 57.5 c 0,0 53.75,-37.793 76.25,-75.293 22.5,-37.5 43.75,-99.992 43.75,-99.992 h -95 l -82.5,69.992 v 105.293" /><path
             id="path88"
             style="fill:#62952d;fill-opacity:1;fill-rule:nonzero;stroke:none"
             d="m 960.117,717.832 v -87.644 l 135.003,-32.649 110,50 v 87.5 l -132.5,46.66 -112.503,-63.867" /><path
             id="path90"
             style="fill:#62952d;fill-opacity:1;fill-rule:nonzero;stroke:none"
             d="m 1112.62,567.539 v -87.363 l 112.5,-45.137 102.5,45.137 v 87.363 l -107.5,52.5 -107.5,-52.5" /><path
             id="path92"
             style="fill:#62952d;fill-opacity:1;fill-rule:nonzero;stroke:none"
             d="m 872.754,412.539 119.785,-27.18 v -83.113 c 0,0 -49.316,-4.707 -102.117,15.293 -52.805,20 -67.902,41.25 -67.902,41.25 l 50.234,53.75" /><path
             id="path94"
             style="fill:#62952d;fill-opacity:1;fill-rule:nonzero;stroke:none"
             d="m 742.727,527.539 h 98.757 l 16.133,-92.5 -57.676,-60 c 0,0 -37.343,15 -51.086,60 -13.738,45 -6.128,92.5 -6.128,92.5" /><path
             id="path96"
             style="fill:#62952d;fill-opacity:1;fill-rule:nonzero;stroke:none"
             d="m 1020.12,387.539 v -85.773 c 0,0 42.5,-11.727 92.5,-11.727 50,0 92.5,11.727 92.5,11.727 v 103.273 l -92.5,46.25 -92.5,-63.75" /><path
             id="path98"
             style="fill:#62952d;fill-opacity:1;fill-rule:nonzero;stroke:none"
             d="m 1237.62,412.539 v -100 c 0,0 -8.3,-12.266 38.75,-22.5 27.31,-5.937 135.03,6.25 135.03,6.25 l 18.72,91.25 -96.25,63.75 -96.25,-38.75" /><path
             id="path100"
             style="fill:#62952d;fill-opacity:1;fill-rule:nonzero;stroke:none"
             d="m 1470.79,387.539 -25.67,-85.773 c 0,0 -2.5,-4.227 72.5,10.773 75,15 107.5,44.609 107.5,44.609 l -53.75,55.391 -100.58,-25" /><path
             id="path102"
             style="fill:#62952d;fill-opacity:1;fill-rule:nonzero;stroke:none"
             d="m 1581.46,435.039 66.16,-60 c 0,0 37.5,23.75 47.5,76.25 10,52.5 0,76.25 0,76.25 h -88.75 l -24.91,-92.5" /><path
             id="path104"
             style="fill:#62952d;fill-opacity:1;fill-rule:nonzero;stroke:none"
             d="m 1085.12,823.563 v -12.977 l 135,-53.047 140,53.047 v 12.977 c 0,0 -97.35,3.195 -143.22,1.777 -45.15,-1.391 -131.78,-1.777 -131.78,-1.777" /><path
             id="path106"
             style="fill:#62952d;fill-opacity:1;fill-rule:nonzero;stroke:none"
             d="m 1384.34,808.945 165.78,-74.777 h -43.74 l -118.52,65.605 -3.52,9.172" /><path
             id="path108"
             style="fill:#62952d;fill-opacity:1;fill-rule:nonzero;stroke:none"
             d="m 1064.76,808.945 -120.639,-74.777 -44.441,4.23 c 0,0 57.324,28.047 92.859,43.301 35.541,15.254 65.871,27.246 65.871,27.246 h 6.35" /><path
             id="path110"
             style="fill:#63992e;fill-opacity:1;fill-rule:nonzero;stroke:none"
             d="m 702.078,601.641 c -11.062,11.351 -22.488,32.777 -32.312,42.972 -37.403,-34.789 -72.637,-67.05 -110.481,-99.429 l 32.285,-40.028 c 0,0 4.856,-7.636 13.743,-20.109 42.695,33.469 72.695,67.125 96.765,116.594" /><path
             id="path112"
             style="fill:#75c130;fill-opacity:1;fill-rule:nonzero;stroke:none"
             d="m 739.043,769.059 c 0,-166.528 -165.449,-301.52 -369.512,-301.52 C 165.449,467.539 0,602.531 0,769.059 c 0,166.527 165.449,301.521 369.531,301.521 204.063,0 369.512,-134.994 369.512,-301.521" /><path
             id="path114"
             style="fill:#63912c;fill-opacity:1;fill-rule:nonzero;stroke:none"
             d="m 546.582,988.242 c 0,-14.176 -12.637,-25.664 -28.23,-25.664 -15.586,0 -28.223,11.488 -28.223,25.664 0,14.168 12.637,25.658 28.223,25.658 15.593,0 28.23,-11.49 28.23,-25.658" /><path
             id="path116"
             style="fill:#63912c;fill-opacity:1;fill-rule:nonzero;stroke:none"
             d="m 590.215,958.465 c 0,-7.797 -6.895,-14.113 -15.402,-14.113 -8.504,0 -15.399,6.316 -15.399,14.113 0,7.793 6.895,14.113 15.399,14.113 8.507,0 15.402,-6.32 15.402,-14.113" /><path
             id="path118"
             style="fill:#ffffff;fill-opacity:1;fill-rule:nonzero;stroke:none"
             d="m 376.113,874.047 c 0,-63.07 -41.367,-114.195 -92.383,-114.195 -51.015,0 -92.382,51.125 -92.382,114.195 0,63.07 41.367,114.195 92.382,114.195 51.016,0 92.383,-51.125 92.383,-114.195" /><path
             id="path120"
             style="fill:none;stroke:#050606;stroke-width:10;stroke-linecap:butt;stroke-linejoin:miter;stroke-miterlimit:10;stroke-dasharray:none;stroke-opacity:1"
             d="m 376.113,874.047 c 0,-63.07 -41.367,-114.195 -92.383,-114.195 -51.015,0 -92.382,51.125 -92.382,114.195 0,63.07 41.367,114.195 92.382,114.195 51.016,0 92.383,-51.125 92.383,-114.195 z" /><path
             id="path122"
             style="fill:#486fbf;fill-opacity:1;fill-rule:nonzero;stroke:none"
             d="m 361.57,873.344 c 0,-52.149 -34.851,-94.422 -77.847,-94.422 -42.993,0 -77.844,42.273 -77.844,94.422 0,52.152 34.851,94.429 77.844,94.429 42.996,0 77.847,-42.277 77.847,-94.429" /><path
             id="path124"
             style="fill:#050606;fill-opacity:1;fill-rule:nonzero;stroke:none"
             d="m 337.297,873.27 c 0,-41.594 -23.984,-75.321 -53.567,-75.321 -29.582,0 -53.566,33.727 -53.566,75.321 0,41.601 23.984,75.328 53.566,75.328 29.583,0 53.567,-33.727 53.567,-75.328" /><path
             id="path126"
             style="fill:#ffffff;fill-opacity:1;fill-rule:nonzero;stroke:none"
             d="m 277.41,926.18 c 0,-10.028 -8.64,-18.164 -19.305,-18.164 -10.656,0 -19.296,8.136 -19.296,18.164 0,10.035 8.64,18.172 19.296,18.172 10.665,0 19.305,-8.137 19.305,-18.172" /><path
             id="path128"
             style="fill:#ffffff;fill-opacity:1;fill-rule:nonzero;stroke:none"
             d="m 337.297,810.926 c 0,-7.168 -6.125,-12.977 -13.684,-12.977 -7.558,0 -13.679,5.809 -13.679,12.977 0,7.168 6.121,12.98 13.679,12.98 7.559,0 13.684,-5.812 13.684,-12.98" /></g></g></g></g></svg>