<?xml version="1.0" encoding="utf-8"?>
<!-- Generator: Adobe Illustrator 12.0.0, SVG Export Plug-In . SVG Version: 6.00 Build 51448)  -->
<!DOCTYPE svg PUBLIC "-//W3C//DTD SVG 1.1//EN" "http://www.w3.org/Graphics/SVG/1.1/DTD/svg11.dtd" [
	<!ENTITY ns_svg "http://www.w3.org/2000/svg">
	<!ENTITY ns_xlink "http://www.w3.org/1999/xlink">
]>
<svg  version="1.1" id="Layer_1" xmlns="&ns_svg;" xmlns:xlink="&ns_xlink;" width="445.588" height="61.765"
	 viewBox="0 0 445.588 61.765" overflow="visible" enable-background="new 0 0 445.588 61.765" xml:space="preserve">
<g>
	<path fill="#213741" d="M53.174,2.478h0.877c0.865,0,1.479,0.691,1.843,2.073c0.362,1.383,0.544,3.866,0.544,7.45
		c0,5.623-0.614,11.257-1.843,16.903s-2.988,10.929-5.281,15.849c-1.778,3.842-3.586,7.069-5.422,9.682s-3.117,3.918-3.842,3.918
		c-0.632,0-1.439-0.604-2.422-1.81c-0.982-1.207-2.164-3.052-3.544-5.535c-1.01-1.801-2.077-3.941-3.204-6.422
		s-1.866-3.721-2.218-3.721c-0.47,0-1.227,1.176-2.271,3.527s-2.083,4.381-3.115,6.088l-0.316,0.563
		c-2.903,4.873-4.823,7.31-5.76,7.31c-0.913,0-2.078-0.984-3.494-2.951c-1.416-1.968-2.909-4.686-4.478-8.153
		c-2.107-4.709-3.641-9.389-4.601-14.039s-1.439-9.846-1.439-15.586c0-6.793,0.158-11.016,0.475-12.668
		c0.316-1.651,1.024-2.478,2.126-2.478h7.556c0.912,0,1.485,0.082,1.72,0.246s0.352,0.469,0.352,0.914
		c0,0.141-0.07,0.539-0.211,1.195c-1.053,4.477-1.579,9.362-1.579,14.659c0,5.695,0.491,10.563,1.474,14.606s2.07,6.063,3.264,6.063
		c1.848,0,3.614-2.507,5.299-7.522c1.684-5.016,2.526-10.956,2.526-17.823c0-3.492-0.34-6.972-1.018-10.44
		c-0.117-0.563-0.176-0.902-0.176-1.02c0-0.258,0.104-0.469,0.315-0.633s0.503-0.246,0.878-0.246h8.46
		c0.562,0,0.965,0.105,1.211,0.316s0.369,0.539,0.369,0.984c0,0.094-0.035,0.375-0.105,0.844C35.374,8.911,35,13.867,35,19.492
		c0,5.742,0.578,10.622,1.736,14.642c1.157,4.02,2.426,6.028,3.806,6.028s2.854-2.349,4.42-7.048s2.351-9.919,2.351-15.661
		c0-3.117-0.316-6.216-0.947-9.298c-0.632-3.082-0.947-4.658-0.947-4.729c0-0.258,0.146-0.48,0.438-0.668
		c0.292-0.188,0.625-0.281,1-0.281H53.174z"/>
	<path fill="#213741" d="M60.023,37.118c0-6.916,1.564-12.408,4.694-16.477c3.129-4.067,7.344-6.102,12.643-6.102
		c3.82,0,6.938,1.03,9.354,3.09c2.414,2.061,3.622,4.705,3.622,7.936c0,2.669-0.731,4.916-2.192,6.742s-3.793,3.383-6.996,4.67
		c-0.985,0.399-2.357,0.904-4.117,1.514c-4.668,1.643-7.002,3.427-7.002,5.351c0,1.385,0.75,2.535,2.25,3.45
		c1.5,0.916,3.422,1.373,5.766,1.373c1.547,0,2.994-0.223,4.342-0.669s2.514-1.081,3.498-1.903c1.683-1.457,2.77-3.102,3.262-4.935
		c0.093-0.328,0.175-0.493,0.245-0.493c0.49,0,0.864,0.406,1.122,1.217c0.257,0.811,0.386,1.968,0.386,3.472
		c0,3.878-1.319,7.004-3.956,9.377c-2.638,2.373-6.137,3.56-10.497,3.56c-5.158,0-9.185-1.869-12.079-5.609
		C61.471,48.941,60.023,43.754,60.023,37.118z M79.494,29.853c0.938-0.324,1.636-0.776,2.093-1.356s0.687-1.299,0.687-2.157
		c0-1.229-0.499-2.23-1.496-3.008s-2.293-1.166-3.888-1.166c-2.252,0-4.199,0.938-5.841,2.812c-1.643,1.874-2.463,3.986-2.463,6.338
		c0,0.466,0.117,0.855,0.352,1.17s0.505,0.472,0.81,0.472c0.211,0,0.422-0.023,0.633-0.07s0.47-0.129,0.774-0.247L79.494,29.853z"/>
	<path fill="#213741" d="M109.958,57.353h-8.783c-1.199,0-2.004-0.229-2.415-0.686s-0.688-1.752-0.828-3.885
		c-0.212-3.141-0.383-7.149-0.512-12.024s-0.193-10.021-0.193-15.435c0-5.063,0.129-9.698,0.388-13.905
		c0.258-4.207,0.54-6.909,0.846-8.104c0.164-0.563,0.452-0.926,0.863-1.09s1.486-0.246,3.226-0.246h2.115
		c1.426,0,2.402,0.059,2.929,0.176s0.79,0.328,0.79,0.632c0,0.68-0.333,2.277-0.997,4.795c-0.665,2.518-0.997,4.514-0.997,5.988
		c0,0.82,0.146,1.481,0.438,1.985c0.292,0.504,0.672,0.755,1.141,0.755c0.607,0,1.73-0.305,3.367-0.915s3.006-0.916,4.105-0.916
		c3.484,0,6.413,1.812,8.787,5.435s3.562,8.225,3.562,13.805c0,7.176-1.615,12.908-4.844,17.199
		C119.716,55.207,115.387,57.353,109.958,57.353z M106.109,34.464c0,4.314,0.419,7.375,1.259,9.181s2.251,2.708,4.234,2.708
		c2.402,0,4.221-1.061,5.457-3.183s1.854-5.247,1.854-9.374c0-4.08-0.671-7.257-2.012-9.531c-1.342-2.274-3.201-3.412-5.58-3.412
		c-1.866,0-3.213,0.651-4.041,1.952c-0.828,1.302-1.242,3.43-1.242,6.384c0,0.586,0.012,1.466,0.035,2.638
		C106.098,32.999,106.109,33.878,106.109,34.464z"/>
	<path fill="#213741" d="M169.241,57.353h-9.362c-0.796,0-1.346-0.146-1.65-0.439s-0.503-0.896-0.597-1.811
		c-0.281-3.819-0.492-7.827-0.633-12.022s-0.21-8.413-0.21-12.655c0-6.116,0.134-11.377,0.403-15.783s0.661-7.828,1.177-10.266
		c0.141-0.75,0.345-1.254,0.614-1.512s0.731-0.387,1.388-0.387h20.674c3.979,0,7.046,0.996,9.2,2.988s3.231,4.815,3.231,8.471
		c0,3.281-0.878,6.286-2.634,9.017s-4.565,5.466-8.429,8.207c-1.429,1.006-3.442,2.232-6.042,3.682s-4.379,2.536-5.339,3.261
		c-0.984,0.798-1.646,1.572-1.985,2.323s-0.509,1.76-0.509,3.026c0,3.215,0.632,6.897,1.896,11.05
		c0.352,1.15,0.527,1.865,0.527,2.146c0,0.259-0.123,0.44-0.369,0.546S169.896,57.353,169.241,57.353z M167.432,20.629l-0.143,4.636
		v0.491c0,1.194,0.117,2.113,0.352,2.757s0.574,0.965,1.021,0.965c0.633,0,1.74-0.427,3.323-1.281s3.277-1.984,5.083-3.389
		c2.204-1.662,3.74-3.119,4.607-4.371s1.302-2.569,1.302-3.95c0-1.896-0.663-3.33-1.987-4.302c-1.325-0.971-3.277-1.457-5.855-1.457
		c-2.744,0-4.685,0.72-5.821,2.159S167.549,16.907,167.432,20.629z"/>
	<path fill="#213741" d="M225.652,15.54c1.175,0,1.95,0.598,2.326,1.793s0.564,4.193,0.564,8.996v5.271
		c0,5.924-0.053,10.419-0.158,13.485c-0.105,3.067-0.276,5.643-0.511,7.727l-0.035,0.175c-0.376,3.325-2.405,4.987-6.089,4.987
		c-1.314,0-2.317-0.059-3.009-0.175c-0.692-0.118-1.108-0.293-1.249-0.526c-0.07-0.116-0.141-0.303-0.211-0.561
		c-0.212-0.678-0.623-1.017-1.232-1.017c-0.07,0-0.897,0.433-2.481,1.297s-3.208,1.297-4.874,1.297c-3.52,0-6.018-1.633-7.496-4.9
		c-1.479-3.267-2.217-9.186-2.217-17.757c0-3.208,0.081-6.164,0.245-8.869s0.386-4.83,0.666-6.376
		c0.047-0.234,0.105-0.55,0.176-0.948c0.396-2.6,1.227-3.899,2.489-3.899h6.847c0.587,0,0.963,0.07,1.127,0.211
		s0.247,0.457,0.247,0.949c0,0.141-0.118,0.656-0.353,1.546c-1.88,7.264-2.819,14.854-2.819,22.773c0,3.28,0.399,5.635,1.198,7.064
		s2.103,2.144,3.912,2.144c2.303,0,4.048-1.159,5.234-3.479c1.187-2.319,1.78-5.74,1.78-10.262c0-6.631-0.623-12.84-1.868-18.627
		c-0.165-0.679-0.247-1.065-0.247-1.159c0-0.445,0.1-0.75,0.3-0.914c0.199-0.164,0.629-0.246,1.287-0.246H225.652z"/>
	<path fill="#213741" d="M249.915,57.353h-8.783c-1.199,0-2.004-0.229-2.415-0.686s-0.688-1.752-0.828-3.885
		c-0.212-3.141-0.383-7.149-0.512-12.024s-0.193-10.021-0.193-15.435c0-5.063,0.129-9.698,0.388-13.905
		c0.258-4.207,0.54-6.909,0.846-8.104c0.164-0.563,0.452-0.926,0.863-1.09s1.486-0.246,3.226-0.246h2.115
		c1.426,0,2.402,0.059,2.929,0.176s0.79,0.328,0.79,0.632c0,0.68-0.333,2.277-0.997,4.795c-0.665,2.518-0.997,4.514-0.997,5.988
		c0,0.82,0.146,1.481,0.438,1.985c0.292,0.504,0.672,0.755,1.141,0.755c0.607,0,1.73-0.305,3.367-0.915s3.006-0.916,4.105-0.916
		c3.484,0,6.413,1.812,8.787,5.435s3.562,8.225,3.562,13.805c0,7.176-1.615,12.908-4.844,17.199
		C259.673,55.207,255.344,57.353,249.915,57.353z M246.066,34.464c0,4.314,0.419,7.375,1.259,9.181s2.251,2.708,4.234,2.708
		c2.402,0,4.221-1.061,5.457-3.183s1.854-5.247,1.854-9.374c0-4.08-0.671-7.257-2.012-9.531c-1.342-2.274-3.201-3.412-5.58-3.412
		c-1.866,0-3.213,0.651-4.041,1.952c-0.828,1.302-1.242,3.43-1.242,6.384c0,0.586,0.012,1.466,0.035,2.638
		C246.055,32.999,246.066,33.878,246.066,34.464z"/>
	<path fill="#213741" d="M278.745,57.353c-0.683,0-1.159-0.105-1.43-0.316s-0.5-0.645-0.688-1.301
		c-0.188-0.727-0.389-3.716-0.6-8.967c-0.212-5.251-0.317-11.205-0.317-17.863c0-5.813,0.094-10.66,0.282-14.54
		c0.188-3.88,0.481-6.887,0.881-9.02c0.258-1.57,0.61-2.515,1.058-2.831c0.446-0.316,1.821-0.475,4.125-0.475
		c2.42,0,3.895,0.059,4.424,0.176c0.528,0.117,0.793,0.352,0.793,0.703c0,0.164-0.117,0.763-0.352,1.794
		c-1.641,7.76-2.461,16.069-2.461,24.931c0,8.135,0.703,16.293,2.109,24.474c0.211,1.337,0.316,2.122,0.316,2.356
		c0,0.398-0.029,0.645-0.088,0.738s-0.24,0.141-0.545,0.141h-1.163H278.745z"/>
	<path fill="#213741" d="M296.392,57.353c-0.986,0-1.639-0.573-1.955-1.722c-0.317-1.148-0.476-3.89-0.476-8.226v-8.261
		c0-4.077,0.07-7.932,0.211-11.563s0.329-6.737,0.563-9.315c0.023-0.094,0.035-0.21,0.035-0.351c0.117-1.477,1.548-2.227,4.294-2.25
		h1.021c1.676,0,2.697,0.082,3.063,0.246s0.55,0.539,0.55,1.125c0,0.305-0.061,1.031-0.182,2.179
		c-0.412,4.336-0.618,8.413-0.618,12.232c0,6.937,0.627,14.154,1.883,21.652c0.266,1.617,0.398,2.601,0.398,2.952
		c0,0.539-0.232,0.891-0.695,1.055s-1.883,0.246-4.259,0.246H296.392z M295.336,6.571c0-1.245,0.451-2.291,1.354-3.137
		c0.902-0.846,2.034-1.27,3.395-1.27c1.449,0,2.614,0.406,3.494,1.217c0.879,0.811,1.319,1.874,1.319,3.189
		c0,1.363-0.429,2.438-1.284,3.226s-2.032,1.181-3.529,1.181c-1.454,0-2.609-0.399-3.465-1.198
		C295.764,8.98,295.336,7.911,295.336,6.571z"/>
	<path fill="#213741" d="M312.786,39.54c0.07,0,0.286,0.494,0.649,1.48c0.362,0.987,0.813,1.915,1.351,2.784
		c1.029,1.574,2.321,2.82,3.877,3.736s3.164,1.374,4.825,1.374c1.824,0,3.274-0.417,4.351-1.251s1.614-1.955,1.614-3.365
		c0-1.574-1.798-3.207-5.392-4.898c-0.396-0.188-0.7-0.329-0.91-0.423c-4.709-2.25-7.784-4.261-9.225-6.03
		c-1.441-1.77-2.161-4.014-2.161-6.733c0-3.609,1.229-6.458,3.688-8.544s5.831-3.13,10.116-3.13c3.044,0,5.784,0.669,8.22,2.005
		s3.653,2.661,3.653,3.974c0,1.008-0.626,2.368-1.878,4.079c-1.252,1.712-2.275,2.567-3.07,2.567c-0.234,0-1.118-0.896-2.65-2.688
		c-1.533-1.791-3.306-2.688-5.317-2.688c-1.264,0-2.311,0.365-3.141,1.094c-0.831,0.729-1.246,1.599-1.246,2.609
		c0,1.928,1.983,3.738,5.951,5.43c1.097,0.471,1.96,0.848,2.591,1.129c3.706,1.712,6.386,3.617,8.04,5.716
		c1.653,2.099,2.48,4.637,2.48,7.614c0,3.963-1.4,7.105-4.2,9.427c-2.801,2.321-6.591,3.481-11.37,3.481
		c-4.007,0-7.205-1.078-9.595-3.236c-2.391-2.157-3.585-5.042-3.585-8.654c0-1.711,0.288-3.282,0.866-4.713
		C311.896,40.256,312.386,39.54,312.786,39.54z"/>
	<path fill="#213741" d="M355.095,57.353h-6.032c-0.678,0-1.163-0.111-1.455-0.334c-0.293-0.223-0.521-0.639-0.684-1.248
		c-0.188-0.703-0.381-3.68-0.579-8.93c-0.199-5.25-0.298-11.228-0.298-17.932c0-6.258,0.099-11.374,0.298-15.347
		c0.198-3.973,0.508-6.968,0.93-8.983c0.233-1.102,0.578-1.811,1.034-2.127c0.455-0.316,1.186-0.475,2.191-0.475h6.041
		c0.329,0,0.617,0.101,0.864,0.3c0.246,0.199,0.37,0.417,0.37,0.651c0,0.705-0.412,2.55-1.234,5.533
		c-0.823,2.984-1.234,5.416-1.234,7.295c0,0.705,0.1,1.258,0.299,1.657s0.463,0.599,0.792,0.599c0.516,0,1.699-0.506,3.553-1.518
		c1.853-1.012,3.576-1.518,5.172-1.518c3.729,0,6.367,1.605,7.915,4.814s2.322,9.136,2.322,17.778c0,3.022-0.076,5.828-0.229,8.416
		s-0.345,4.538-0.578,5.85c-0.047,0.234-0.105,0.586-0.175,1.055c-0.468,2.951-1.345,4.438-2.63,4.462h-6.671
		c-0.659,0-1.089-0.087-1.288-0.263c-0.2-0.176-0.3-0.474-0.3-0.896c0-0.094,0.094-0.468,0.282-1.124
		c1.975-6.623,2.963-14.03,2.963-22.222c0-3.861-0.406-6.575-1.217-8.144c-0.812-1.568-2.17-2.353-4.074-2.353
		c-2.163,0-3.832,1.305-5.008,3.914s-1.764,6.337-1.764,11.182c0,6.412,0.611,12.345,1.834,17.798
		c0.117,0.539,0.177,0.854,0.177,0.948c0,0.445-0.083,0.749-0.247,0.913C356.271,57.271,355.823,57.353,355.095,57.353z"/>
	<path fill="#213741" d="M382.125,37.118c0-6.916,1.564-12.408,4.694-16.477c3.129-4.067,7.344-6.102,12.643-6.102
		c3.82,0,6.938,1.03,9.354,3.09c2.414,2.061,3.622,4.705,3.622,7.936c0,2.669-0.731,4.916-2.192,6.742s-3.793,3.383-6.996,4.67
		c-0.985,0.399-2.357,0.904-4.117,1.514c-4.668,1.643-7.002,3.427-7.002,5.351c0,1.385,0.75,2.535,2.25,3.45
		c1.5,0.916,3.422,1.373,5.766,1.373c1.547,0,2.994-0.223,4.342-0.669s2.514-1.081,3.498-1.903c1.683-1.457,2.77-3.102,3.262-4.935
		c0.093-0.328,0.175-0.493,0.245-0.493c0.49,0,0.864,0.406,1.122,1.217c0.257,0.811,0.386,1.968,0.386,3.472
		c0,3.878-1.319,7.004-3.956,9.377c-2.638,2.373-6.137,3.56-10.497,3.56c-5.158,0-9.185-1.869-12.079-5.609
		C383.572,48.941,382.125,43.754,382.125,37.118z M401.596,29.853c0.938-0.324,1.636-0.776,2.093-1.356s0.687-1.299,0.687-2.157
		c0-1.229-0.499-2.23-1.496-3.008s-2.293-1.166-3.888-1.166c-2.252,0-4.199,0.938-5.841,2.812c-1.643,1.874-2.463,3.986-2.463,6.338
		c0,0.466,0.117,0.855,0.352,1.17s0.505,0.472,0.81,0.472c0.211,0,0.422-0.023,0.633-0.07s0.47-0.129,0.774-0.247L401.596,29.853z"
		/>
	<path fill="#213741" d="M424.841,57.353c-1.855,0-2.953-0.192-3.293-0.579c-0.341-0.387-0.581-1.481-0.722-3.286
		c-0.259-3.373-0.459-7.343-0.6-11.911c-0.141-4.567-0.211-9.381-0.211-14.441c0-1.101-0.012-2.406-0.035-3.917
		s-0.035-2.489-0.035-2.935c0-2.061,0.152-3.366,0.457-3.917s1.044-0.826,2.218-0.826c2.112,0,3.585,0.035,4.418,0.105
		s1.309,0.187,1.426,0.349c0.117,0.117,0.281,0.618,0.492,1.504s0.716,1.328,1.515,1.328c0.563,0,1.648-0.693,3.256-2.08
		s3.221-2.081,4.84-2.081c1.689,0,3.104,0.633,4.242,1.896c1.138,1.265,1.707,2.834,1.707,4.707c0,1.709-0.581,3.29-1.742,4.741
		c-1.162,1.452-2.188,2.178-3.079,2.178c-0.047,0-0.581-0.732-1.602-2.198s-2.188-2.199-3.501-2.199
		c-1.783,0-3.18,1.056-4.188,3.167s-1.513,5.066-1.513,8.865c0,5.676,0.633,11.563,1.9,17.66c0.281,1.361,0.422,2.193,0.422,2.498
		c0,0.563-0.218,0.933-0.651,1.108c-0.435,0.176-1.613,0.264-3.537,0.264H424.841z"/>
</g>
</svg>
